<svg width="450" height="320" viewBox="0 0 450 320" fill="none" xmlns="http://www.w3.org/2000/svg">
<path d="M119.068 319.67L47.8422 318.852C47.8422 318.852 0.175793 283.418 21.9983 170.865C35.2379 102.579 104.02 73.8643 160.439 70.0653C229.266 65.4309 232.958 17.4911 308.615 25.1063C343.985 28.6665 388.75 47.635 417.088 106.493C438.194 150.329 473.371 210.778 405.252 318.354L119.068 319.67Z" fill="#FDEACF"/>
<path d="M119.665 319.444L48.4392 318.626C48.4392 318.626 -20.3918 278.551 6.04587 167.083C14.0222 133.453 53.7579 74.4373 110.177 70.6385C179.003 66.0041 179.344 -10.5702 307.638 5.85337C342.908 10.3685 389.347 47.4095 417.685 106.268C438.791 150.103 473.968 210.553 405.849 318.129L119.665 319.444Z" fill="#AAC341" fill-opacity="0.3"/>
<path d="M301.303 90.6411C302.468 85.3728 302.739 80.0349 302.173 74.8229L313.44 68.37L310.497 59.9933L307.554 51.6165L294.727 53.6308C291.908 49.2103 288.359 45.2147 284.155 41.8331L287.56 29.3006L279.556 25.4587L271.553 21.6168L263.906 32.1133C258.638 30.9487 253.3 30.6784 248.089 31.2442L241.637 19.9759L233.261 22.9194L224.884 25.8629L226.898 38.6909C222.478 41.5096 218.483 45.0595 215.102 49.2637L202.57 45.8581L198.728 53.8627L194.887 61.8673L205.382 69.5149C204.218 74.783 203.947 80.1208 204.513 85.333L193.246 91.786L196.189 100.163L199.132 108.539L211.959 106.525C214.777 110.946 218.327 114.941 222.531 118.323L219.125 130.856L227.129 134.697L235.133 138.539L242.78 128.043C248.048 129.208 253.385 129.478 258.597 128.912L265.049 140.18L273.425 137.237L281.801 134.293L279.787 121.465C284.207 118.646 288.203 115.096 291.584 110.892L304.115 114.298L307.957 106.293L311.799 98.2887L301.303 90.6411ZM254.603 113.364C236.221 114.06 220.756 99.7218 220.06 81.3383C219.364 62.9549 233.702 47.4878 252.083 46.7919C270.465 46.096 285.931 60.4342 286.626 78.8177C287.322 97.2009 272.985 112.668 254.603 113.364Z" fill="#FDEACF"/>
<path d="M412.138 137.4C410.865 133.893 409.044 130.676 406.781 127.843L410.967 119.897L406.143 116.098L401.319 112.298L394.577 118.231C391.292 116.695 387.738 115.678 384.03 115.263L381.372 106.683L375.275 107.408L369.177 108.132L368.604 117.096C365.097 118.369 361.88 120.191 359.047 122.454L351.102 118.267L347.303 123.092L343.504 127.916L349.436 134.659C347.901 137.944 346.884 141.498 346.468 145.206L337.889 147.865L338.614 153.963L339.339 160.061L348.302 160.634C349.575 164.142 351.397 167.358 353.659 170.192L349.473 178.137L354.297 181.936L359.121 185.736L365.864 179.804C369.148 181.34 372.702 182.356 376.41 182.772L379.068 191.351L385.166 190.627L391.263 189.902L391.836 180.938C395.344 179.665 398.56 177.844 401.393 175.581L409.338 179.767L413.137 174.943L416.936 170.118L411.004 163.375C412.54 160.09 413.556 156.536 413.972 152.828L422.551 150.169L421.826 144.071L421.101 137.974L412.138 137.4ZM382.939 171.895C370.305 173.396 358.846 164.371 357.345 151.737C355.843 139.102 364.868 127.642 377.501 126.14C390.135 124.639 401.594 133.664 403.095 146.298C404.597 158.933 395.573 170.393 382.939 171.895Z" fill="#FDEACF"/>
<path d="M236.288 308.505L221.007 313.717L219.304 310.34L213.685 298.254L229.62 293.215L236.288 308.505Z" fill="#FE9F73"/>
<path d="M220.65 314.765L234.044 310.328L237.515 302.614L249.406 305.239L251.545 304.531C252.282 304.287 253.123 304.561 253.502 305.239C254.011 306.152 253.552 307.249 252.611 307.561L221.469 317.877C221.24 317.953 220.993 317.829 220.917 317.6L220.245 315.571C220.134 315.236 220.316 314.875 220.65 314.765Z" fill="#F99247"/>
<path d="M220.774 314.743L218.953 309.244C218.953 309.244 220.203 305.461 224.151 305.873C224.151 305.873 230.566 307.837 233.668 301.861L246.711 303.138C246.711 303.138 250.174 303.148 251.572 304.541L220.774 314.743Z" fill="#FF424D"/>
<path d="M219.062 309.219L218.834 309.294L220.646 314.766L220.874 314.69L219.062 309.219Z" fill="black"/>
<path d="M229.318 305.877C229.753 305.733 230.004 305.609 230.012 305.605L229.903 305.39C229.878 305.403 227.318 306.668 224.184 305.757L224.117 305.988C226.363 306.641 228.324 306.206 229.318 305.877Z" fill="black"/>
<path d="M221.472 312.073L221.407 312.304L223.185 312.801L223.25 312.569L221.472 312.073Z" fill="black"/>
<path d="M222.452 311.434L222.387 311.665L224.164 312.163L224.229 311.932L222.452 311.434Z" fill="black"/>
<path d="M253.583 306.945C253.848 306.511 253.908 305.986 253.748 305.504C253.449 304.6 252.471 304.109 251.567 304.408L220.774 314.608C220.29 314.769 220.027 315.293 220.187 315.778L220.69 317.298L220.918 317.222L220.415 315.702C220.296 315.343 220.491 314.955 220.85 314.836L251.643 304.636C252.421 304.379 253.263 304.802 253.52 305.579C253.658 305.994 253.606 306.447 253.378 306.82L253.583 306.945Z" fill="black"/>
<path d="M251.518 304.605L251.692 304.439C251.649 304.394 250.602 303.322 247.945 303.1C245.335 302.882 233.796 301.753 233.68 301.741L233.656 301.98C233.773 301.992 245.313 303.122 247.925 303.34C250.481 303.553 251.508 304.594 251.518 304.605Z" fill="black"/>
<path d="M165.739 190.723L166.67 207.165L156.235 209.219C156.235 209.219 150.597 199.432 150.556 199.069C150.516 198.707 156.012 188.803 156.892 188.678C157.772 188.553 165.739 190.723 165.739 190.723Z" fill="#F49069"/>
<path d="M89.6261 253.081C89.6261 253.081 88.3465 235.24 81.4214 238.703C74.4964 242.166 68.851 264.9 68.0982 265.578C67.3454 266.255 67.5714 287.032 67.5714 287.032L75.6255 282.968C75.6255 282.968 77.7684 233.306 89.6261 253.081Z" fill="#258D8C"/>
<path d="M81.8653 216.143C81.8653 216.143 66.3482 230.028 62.1142 253.834C57.8802 277.641 71.2598 284.648 71.2598 284.648C71.2598 284.648 73.1636 234.59 81.8653 216.143Z" fill="#7FC6A6"/>
<path d="M53.0815 287.86C53.0815 287.86 50.4847 237.18 37.3872 215.208C37.3872 215.208 60.3809 228.927 68.0052 264.937C68.4344 266.964 68.6893 269.217 69.0142 271.387C69.3524 273.645 69.5539 275.644 69.5023 277.64C69.4111 281.166 68.9221 284.196 68.7783 286.423C67.5364 305.664 53.0815 287.86 53.0815 287.86Z" fill="#258D8C"/>
<path d="M53.5255 266.34C52.6344 259.114 49.8912 252.227 45.4824 246.434C42.2977 242.249 38.6107 239.068 35.7314 241.338C29.3332 246.382 28.0537 277.698 28.0537 277.698C28.0537 277.698 35.2798 256.017 38.4412 257.448C41.6025 258.878 44.5381 288.312 44.5381 288.312L56.3558 289.291L53.5255 266.34Z" fill="#7FC6A6"/>
<path d="M69.6443 286.091C70.1295 275.026 68.742 264.407 65.5201 254.527C62.9425 246.623 59.1919 239.172 54.3722 232.382C46.1645 220.818 37.5782 215.104 37.4924 215.048L37.2825 215.368C37.3678 215.424 45.904 221.107 54.0703 232.617C61.6046 243.236 70.356 261.131 69.2623 286.074L69.6443 286.091Z" fill="#21111D"/>
<path d="M71.4508 284.655C71.4556 284.53 71.9445 271.975 73.4898 257.331C74.915 243.824 77.5549 225.729 82.0382 216.224L81.6923 216.061C77.1859 225.614 74.5373 243.756 73.1092 257.293C71.5626 271.95 71.0733 284.515 71.0686 284.64L71.4508 284.655Z" fill="#21111D"/>
<path d="M75.8166 282.976C75.8202 282.895 76.1838 274.732 77.3831 266.462C78.96 255.587 81.239 249.468 83.9739 248.766C85.5887 248.353 87.4351 249.838 89.4626 253.181L89.7898 252.982C87.6645 249.478 85.6758 247.935 83.8789 248.396C80.9409 249.149 78.628 255.21 77.0042 266.409C75.8024 274.699 75.4381 282.878 75.4346 282.959L75.8166 282.976Z" fill="#21111D"/>
<path d="M56.166 289.314L56.5457 289.267L53.7152 266.316C52.812 258.993 50.0177 252.077 45.6345 246.318C42.8593 242.671 40.3941 240.687 38.3077 240.422C37.3224 240.297 36.4161 240.555 35.6129 241.188C32.9191 243.311 30.7962 250.106 29.3036 261.384C28.1956 269.755 27.8657 277.611 27.8625 277.69L28.2448 277.705C28.2574 277.393 29.5936 246.42 35.8497 241.488C36.5692 240.921 37.3801 240.69 38.2595 240.802C40.2404 241.053 42.6193 242.987 45.3301 246.549C49.6724 252.255 52.4406 259.106 53.3355 266.363L56.166 289.314Z" fill="#21111D"/>
<path d="M43.8675 261.005L43.5276 261.181L46.0103 265.994L46.3502 265.819L43.8675 261.005Z" fill="#21111D"/>
<path d="M43.8738 264.262L43.5388 264.446L46.0221 268.954L46.357 268.77L43.8738 264.262Z" fill="#21111D"/>
<path d="M71.4146 232.312L69.292 236.973L69.64 237.131L71.7627 232.471L71.4146 232.312Z" fill="#21111D"/>
<path d="M71.0953 235.966L69.2886 239.226L69.6231 239.412L71.4298 236.151L71.0953 235.966Z" fill="#21111D"/>
<path d="M83.2441 240.404L79.6311 242.245L79.8049 242.586L83.4178 240.744L83.2441 240.404Z" fill="#21111D"/>
<path d="M81.7773 242.52L79.6399 243.82L79.8387 244.147L81.9761 242.847L81.7773 242.52Z" fill="#21111D"/>
<path d="M79.7278 281.679C79.7278 281.679 79.0534 318.73 69.1306 317.861H61.3277H60.0747H52.2718C42.349 318.73 41.6746 281.679 41.6746 281.679C51.0647 280.26 70.3377 280.26 79.7278 281.679Z" fill="#F99247"/>
<path d="M45.6502 286.428L45.3726 286.691L56.216 298.142L56.4937 297.879L45.6502 286.428Z" fill="#21111D"/>
<path d="M48.8508 293.784L48.5623 294.035L54.5328 300.899L54.8214 300.648L48.8508 293.784Z" fill="#21111D"/>
<path d="M195.388 313.274L179.539 311.774L179.368 307.996L179.183 294.668L195.55 296.593L195.388 313.274Z" fill="#FE9F73"/>
<path d="M149.115 220.048C149.115 220.048 187.815 224.411 193.235 231.359C195.906 234.785 201.548 284.967 199.29 304.085C199.29 304.085 182.827 304.404 177.654 303.498L177.009 252.592L147.24 243.588L131.955 220.103L149.115 220.048Z" fill="#3AA1C9"/>
<path d="M193.117 304.499C185.615 304.499 177.738 303.68 177.636 303.669L177.484 303.653L176.923 252.883L177.268 252.878L177.825 303.342C179.313 303.491 191.294 304.645 199.275 303.913L199.306 304.257C197.404 304.431 195.275 304.499 193.117 304.499Z" fill="black"/>
<path d="M148.112 314.412H134.038V260.541H130.911V314.412H117.201C115.288 314.412 113.737 315.963 113.737 317.876H130.911H134.038H151.576C151.576 315.963 150.025 314.412 148.112 314.412Z" fill="#F07162"/>
<path d="M91.7737 184.874H118.357C121.731 184.874 124.657 187.204 125.412 190.492L141.234 259.381L104.166 255.516L91.7737 184.874Z" fill="#FEC786"/>
<path d="M165.869 251.791C165.869 251.791 123.358 251.792 110.672 251.792C108.624 251.792 106.869 250.331 106.497 248.317L95.2174 187.244C94.9144 185.603 93.3108 184.531 91.6679 184.895C90.103 185.242 89.1254 186.811 89.4164 188.388L102.195 257.575C102.294 258.111 102.534 258.584 102.867 258.969C103.689 260.497 105.302 261.535 107.159 261.535H165.869C168.56 261.535 170.741 259.354 170.741 256.663C170.741 253.973 168.56 251.791 165.869 251.791Z" fill="#F99247"/>
<path d="M110.672 252.204C108.51 252.204 106.656 250.661 106.264 248.535L94.9839 187.462C94.8486 186.73 94.4324 186.1 93.8115 185.689C93.191 185.278 92.4485 185.14 91.7194 185.302C91.5916 185.33 91.4644 185.25 91.4361 185.122C91.4077 184.994 91.4887 184.867 91.6167 184.838C92.4724 184.648 93.3449 184.81 94.0738 185.293C94.8031 185.776 95.2922 186.516 95.451 187.376L106.731 248.449C107.082 250.35 108.739 251.729 110.672 251.729C110.803 251.729 110.909 251.836 110.909 251.967C110.909 252.098 110.803 252.204 110.672 252.204Z" fill="#21111D"/>
<path d="M131.802 261.814H131.802L108.774 261.773C102.571 262.332 101.833 257.023 101.797 256.732L100.428 249.319C100.404 249.19 100.49 249.066 100.619 249.043C100.748 249.019 100.872 249.104 100.896 249.233L102.269 256.672C102.29 256.883 102.862 261.835 108.742 261.298L108.764 261.297L131.803 261.339C131.934 261.339 132.04 261.445 132.04 261.577C132.04 261.708 131.933 261.814 131.802 261.814Z" fill="#21111D"/>
<path d="M122.957 225.346C122.957 225.346 117.031 246.385 130.505 250.994C143.979 255.604 190.064 252.029 190.064 252.029L210.577 304.25C210.577 304.25 224.667 302.346 231.226 293.626C231.226 293.626 212.821 232.94 204.843 229.216C196.865 225.493 161.852 221.744 161.852 221.744L122.957 225.346Z" fill="#4CB7D8"/>
<path d="M210.328 304.499L210.277 304.371L197.077 270.827L197.398 270.7L210.548 304.114C212.03 303.859 225.153 301.395 230.949 293.581L231.227 293.787C225.025 302.148 210.609 304.456 210.465 304.478L210.328 304.499Z" fill="black"/>
<path d="M132.603 216.1L128.552 221.629L128.831 221.833L132.882 216.305L132.603 216.1Z" fill="black"/>
<path d="M148.078 145.93C149.993 149.428 148.337 161.555 148.337 161.555L147.152 161.435C147.132 161.031 146.981 159.862 146.981 159.862L146.467 161.366L141.858 160.899L141.178 142.172C141.178 142.172 146.163 142.431 148.078 145.93Z" fill="#49263E"/>
<path d="M145.654 147.8C145.654 147.8 148.367 157.065 143.372 158.454L143.384 164.982L136.416 163.46L136.264 142.451C136.264 142.451 138.331 142.69 138.332 142.86C138.333 143.03 145.654 147.8 145.654 147.8Z" fill="#FE9F73"/>
<path d="M143.415 154.034C143.386 154.034 143.359 154.014 143.353 153.984C143.345 153.95 143.367 153.916 143.401 153.908C143.811 153.817 144.066 153.31 144.139 153.145C143.554 152.838 143.196 152.436 143.073 151.949C142.874 151.156 143.373 150.434 143.394 150.404C143.414 150.375 143.454 150.368 143.483 150.388C143.511 150.408 143.518 150.448 143.498 150.477C143.493 150.484 143.012 151.183 143.197 151.919C143.314 152.382 143.668 152.765 144.249 153.058L144.3 153.084L144.28 153.137C144.268 153.169 143.984 153.909 143.429 154.032C143.424 154.034 143.42 154.034 143.415 154.034Z" fill="#F07162"/>
<path d="M143.386 160.447L143.372 158.454C143.372 158.454 140.001 158.28 137.925 156.993C137.925 156.993 140.75 159.67 143.386 160.447Z" fill="#F07162"/>
<path d="M141.788 151.281C141.79 151.477 141.632 151.637 141.436 151.639C141.24 151.64 141.08 151.482 141.079 151.286C141.077 151.09 141.235 150.93 141.431 150.929C141.627 150.927 141.787 151.085 141.788 151.281Z" fill="black"/>
<path d="M145.378 151.371C145.38 151.567 145.222 151.727 145.026 151.728C144.83 151.73 144.67 151.572 144.669 151.376C144.667 151.18 144.825 151.02 145.021 151.018C145.217 151.017 145.377 151.175 145.378 151.371Z" fill="black"/>
<path d="M140.649 153.887C140.688 153.897 142.975 154.867 142.975 154.867C142.975 154.867 142.268 155.674 141.417 155.316C140.566 154.958 140.649 153.887 140.649 153.887Z" fill="#FBFDFC"/>
<path d="M143.27 144.381C143.27 144.381 142.367 148.713 138.307 150.434C134.247 152.156 136.641 157.597 136.641 157.597L132.712 151.818C132.712 151.818 132.783 144.008 136.264 142.451C138.796 141.317 143.664 141.919 143.27 144.381Z" fill="#49263E"/>
<path d="M140.322 150.016C140.359 150.033 140.403 150.032 140.44 150.009C140.449 150.004 141.359 149.464 142.269 149.774C142.335 149.796 142.407 149.761 142.429 149.695C142.452 149.628 142.417 149.556 142.35 149.534C141.327 149.186 140.35 149.768 140.309 149.793C140.249 149.829 140.23 149.907 140.266 149.967C140.28 149.99 140.3 150.006 140.322 150.016Z" fill="#49263E"/>
<path d="M145.765 150.466C145.805 150.471 145.846 150.457 145.875 150.425C145.921 150.373 145.916 150.293 145.864 150.246C145.828 150.214 144.971 149.466 143.902 149.626C143.833 149.636 143.786 149.701 143.796 149.77C143.806 149.839 143.871 149.886 143.94 149.876C144.893 149.734 145.688 150.428 145.696 150.436C145.716 150.453 145.74 150.463 145.765 150.466Z" fill="#49263E"/>
<path d="M142.986 146.05L141.254 144.437L142.547 146.318L142.986 146.05Z" fill="#FE9F73"/>
<path d="M138.606 149.486C138.523 149.503 138.438 149.453 138.414 149.369C138.389 149.282 138.44 149.19 138.528 149.165C140.841 148.505 141.588 146.294 141.595 146.272C141.624 146.185 141.717 146.138 141.803 146.166C141.89 146.195 141.938 146.288 141.909 146.375C141.877 146.472 141.099 148.775 138.618 149.483C138.615 149.484 138.611 149.485 138.606 149.486Z" fill="#21111D"/>
<path d="M131.591 147.327C132.537 142.912 137.41 142.085 137.41 142.085L137.255 150.712C137.255 150.712 136.35 154.472 136.801 160.065L136.924 161.119C136.924 161.119 135.165 161.02 133.154 160.625C133.006 159.801 132.76 158.463 132.76 158.463L132.232 160.425C131.787 160.319 131.341 160.198 130.908 160.059C130.908 160.059 130.822 150.916 131.591 147.327Z" fill="#49263E"/>
<path d="M137.891 152.245C137.899 153.344 137.014 154.241 135.915 154.249C134.817 154.257 133.92 153.373 133.912 152.274C133.904 151.175 134.788 150.278 135.887 150.27C136.986 150.262 137.883 151.146 137.891 152.245Z" fill="#FE9F73"/>
<path d="M135.762 153.489C135.345 153.492 135.064 153.18 134.97 152.867C134.858 152.497 134.98 152.136 135.28 151.946C135.708 151.677 136.099 151.83 136.312 151.961C136.225 151.75 136.094 151.596 135.92 151.503C135.529 151.292 135.049 151.451 135.044 151.453C135.011 151.464 134.974 151.446 134.963 151.413C134.952 151.38 134.97 151.344 135.003 151.332C135.025 151.325 135.541 151.153 135.981 151.39C136.235 151.527 136.409 151.772 136.497 152.117L136.555 152.338L136.391 152.178C136.371 152.159 135.899 151.707 135.348 152.054C135.044 152.246 135.02 152.592 135.092 152.831C135.167 153.081 135.389 153.369 135.772 153.361C135.806 153.36 135.836 153.388 135.837 153.424C135.837 153.459 135.809 153.488 135.774 153.489C135.77 153.488 135.766 153.489 135.762 153.489Z" fill="#F07162"/>
<path d="M131.277 220.363L128.551 224.941L128.847 225.118L131.574 220.54L131.277 220.363Z" fill="black"/>
<path d="M160.266 253.302C149.396 253.302 136.688 252.895 130.445 251.217C125.365 249.851 122.339 245.282 121.695 238.005C121.213 232.552 122.241 227.435 122.251 227.384L122.702 227.476C122.692 227.526 121.676 232.587 122.155 237.973C122.791 245.137 125.62 249.443 130.565 250.772C142.567 253.999 178.749 252.495 179.113 252.48L179.133 252.94C178.956 252.947 170.412 253.302 160.266 253.302Z" fill="black"/>
<path d="M158.451 212.768L157.671 194.553C160.001 195.037 163.819 193.344 166.647 191.816C165.972 178.849 160.632 166.304 157.363 164.461C156.212 163.813 154.476 163.208 152.364 162.78C150.768 162.456 148.492 163.376 146.556 163.179C140.913 162.603 134.696 161.393 129.174 161.841C124.882 162.189 121.283 162.821 119.468 163.747C112.734 167.181 104.857 183.452 102.085 191.814C102.085 191.814 108.95 197.828 117.798 198.058L121.802 189.161L122.365 228.224L143.404 227.619L151.234 226.647L156.445 225.406L160.471 223.544L161.864 222.128C161.864 222.128 161.892 219.232 161.878 213.688C158.345 214.056 158.451 212.768 158.451 212.768Z" fill="#FF424D"/>
<path d="M119.61 194.553C109.963 193.052 104.242 187.276 104.185 187.217L104.52 186.892C104.575 186.949 110.195 192.616 119.682 194.092L119.61 194.553Z" fill="#21111D"/>
<path d="M162.243 212.218L159.601 208.11C158.145 205.758 155.795 202.673 153.348 202.399C149.351 201.953 125.005 200.953 117.28 200L117.94 198.178C117.929 198.27 112.115 197.216 112.115 197.216L108.078 195.535L104.185 193.377C103.189 197.256 100.141 204.806 102.943 209.246C108.12 217.45 147.715 213.41 151.228 212.336L154.462 215.84L155.123 216.855C155.435 217.336 156.078 217.472 156.558 217.159C157.039 216.847 157.175 216.204 156.862 215.723L157.139 216.148C157.451 216.629 158.094 216.765 158.574 216.452C159.055 216.14 159.191 215.497 158.878 215.016C159.191 215.497 159.834 215.633 160.314 215.32C160.794 215.008 160.931 214.365 160.618 213.885L160.342 213.46C160.654 213.94 161.297 214.076 161.777 213.764C161.797 213.751 161.815 213.737 161.833 213.723C161.837 213.721 161.842 213.717 161.846 213.714C161.855 213.707 161.864 213.7 161.872 213.693C161.873 213.692 161.874 213.692 161.875 213.691C161.876 213.69 161.877 213.689 161.878 213.688C161.943 213.634 161.999 213.573 162.047 213.507C162.613 212.826 162.243 212.218 162.243 212.218Z" fill="#FE9F73"/>
<path d="M117.923 198.377L117.774 198.374C109.908 198.19 102.002 192.142 101.923 192.081L101.778 191.968L106.766 180.914L107.191 181.106L102.356 191.821C103.458 192.635 110.558 197.67 117.636 197.903L119.777 193.545L120.196 193.751L117.923 198.377Z" fill="#21111D"/>
<path d="M114.501 203.81C114.457 203.82 114.409 203.811 114.371 203.781C114.304 203.728 114.291 203.631 114.344 203.563L117.178 199.914C117.231 199.846 117.328 199.834 117.396 199.887C117.464 199.939 117.477 200.037 117.424 200.105L114.589 203.754C114.567 203.783 114.535 203.802 114.501 203.81Z" fill="#F07162"/>
<path d="M160.796 214.055C160.738 214.068 160.674 214.046 160.636 213.995L156.928 208.902C156.877 208.832 156.892 208.735 156.962 208.684C157.031 208.634 157.128 208.649 157.179 208.719L160.888 213.811C160.939 213.881 160.923 213.978 160.854 214.029C160.836 214.042 160.816 214.05 160.796 214.055Z" fill="#F07162"/>
<path d="M159.168 215.545C159.107 215.559 159.041 215.535 159.004 215.48L155.465 210.23C155.417 210.158 155.436 210.062 155.507 210.014C155.578 209.965 155.675 209.984 155.723 210.056L159.262 215.306C159.31 215.377 159.292 215.474 159.22 215.522C159.204 215.533 159.186 215.541 159.168 215.545Z" fill="#F07162"/>
<path d="M157.201 216.494C157.14 216.508 157.074 216.484 157.037 216.428L154.093 211.978C154.045 211.906 154.065 211.81 154.137 211.762C154.208 211.715 154.305 211.735 154.352 211.806L157.297 216.257C157.344 216.328 157.324 216.425 157.253 216.472C157.237 216.483 157.219 216.49 157.201 216.494Z" fill="#F07162"/>
<path d="M159.292 199.728H158.839V185.357L158.857 185.315C162.013 177.832 156.381 175.092 156.139 174.979L156.331 174.568C156.394 174.598 162.582 177.587 159.292 185.448L159.292 199.728Z" fill="#21111D"/>
<path d="M120.195 193.751L127.248 177.148L126.82 176.962L119.468 194.095L120.195 193.751Z" fill="#21111D"/>
<path d="M199.907 180.915H162.851L149.928 213.827H186.984L199.907 180.915Z" fill="#4CB7D8"/>
<path d="M149.928 213.827H151.862L164.785 180.915H162.851L149.928 213.827Z" fill="#3AA1C9"/>
<path d="M175.681 196.322C175.168 197.834 175.544 199.329 176.522 199.662C177.5 199.994 178.709 199.038 179.223 197.526C179.736 196.014 179.36 194.519 178.382 194.186C177.404 193.854 176.195 194.81 175.681 196.322Z" fill="#E2F2F1"/>
<path d="M137.678 211.17H151.522V213.828H137.678C136.945 213.828 136.35 213.233 136.35 212.499C136.35 211.765 136.944 211.17 137.678 211.17Z" fill="#3AA1C9"/>
<path d="M141.183 212.498H149.928V212.082H141.183V212.498Z" fill="#4CB7D8"/>
<path d="M145.718 227.418L145.063 227.232C160.02 226.019 161.649 222.145 161.657 222.108L161.717 216.071L162.097 216.075L162.033 222.152C161.992 222.354 160.95 226.183 145.718 227.418Z" fill="black"/>
<path d="M160.472 216.228H149.115V218.523H160.472V216.228Z" fill="#FF424D"/>
<path d="M122.549 214.59H122.169V227.419H122.549V214.59Z" fill="black"/>
<path d="M178.912 314.664H193.022L198.742 308.433L209.205 314.664H211.458C212.235 314.664 212.947 315.19 213.093 315.952C213.29 316.979 212.509 317.876 211.518 317.876H178.711C178.47 317.876 178.275 317.68 178.275 317.439V315.302C178.275 314.95 178.56 314.664 178.912 314.664Z" fill="#F99247"/>
<path d="M179.037 314.682V308.89C179.037 308.89 181.413 305.692 185.031 307.324C185.031 307.324 190.503 311.207 195.327 306.508L207.306 311.823C207.306 311.823 210.591 312.92 211.48 314.682H179.037Z" fill="#FF424D"/>
<path d="M179.157 308.89H178.917V314.654H179.157V308.89Z" fill="black"/>
<path d="M189.936 308.953C190.394 308.953 190.67 308.914 190.679 308.913L190.644 308.675C190.616 308.679 187.788 309.076 185.099 307.225L184.963 307.423C186.89 308.749 188.888 308.953 189.936 308.953Z" fill="black"/>
<path d="M180.555 312.36L180.42 312.56L181.952 313.59L182.086 313.39L180.555 312.36Z" fill="black"/>
<path d="M181.653 312.086L181.519 312.285L183.049 313.317L183.183 313.118L181.653 312.086Z" fill="black"/>
<path d="M212.634 317.597C213.021 317.269 213.244 316.789 213.244 316.281C213.244 315.329 212.469 314.555 211.518 314.555H179.08C178.57 314.555 178.155 314.97 178.155 315.481V317.082H178.395V315.481C178.395 315.103 178.702 314.795 179.08 314.795H211.518C212.337 314.795 213.004 315.462 213.004 316.281C213.004 316.718 212.812 317.131 212.479 317.414L212.634 317.597Z" fill="black"/>
<path d="M211.409 314.727L211.626 314.624C211.6 314.567 210.942 313.22 208.49 312.175C206.081 311.147 195.483 306.446 195.376 306.399L195.279 306.618C195.386 306.666 205.985 311.367 208.396 312.396C210.755 313.402 211.403 314.713 211.409 314.727Z" fill="black"/>
<path d="M107.082 317.876H104.034L109.532 213.828H115.627L107.082 317.876Z" fill="#21111D"/>
<path d="M209.412 227.232H111.094V229.217H209.412V227.232Z" fill="#21111D"/>
<path d="M212.301 266.858H109.757V268.843H212.301V266.858Z" fill="#21111D"/>
<path d="M211.997 317.876H215.045L209.547 213.828H203.452L211.997 317.876Z" fill="#21111D"/>
<path d="M224.907 216.228H96.9288C96.7593 216.228 96.6218 216.091 96.6218 215.921V213.259C96.6218 213.09 96.7591 212.952 96.9288 212.952H224.907C225.077 212.952 225.214 213.09 225.214 213.259V215.921C225.214 216.091 225.077 216.228 224.907 216.228Z" fill="#7FC6A6"/>
<path d="M129.174 161.841C129.174 161.841 133.477 166.599 141.434 167.052C149.39 167.505 152.365 162.78 152.365 162.78C152.365 162.78 140.898 160.906 129.174 161.841Z" fill="#FE9F73"/>
<path d="M144.505 68.1904C144.505 46.0288 126.541 28.0632 104.381 28.0632C82.2215 28.0632 64.2573 46.0288 64.2573 68.1904C64.2573 79.1829 68.6786 89.1416 75.8377 96.389L75.8363 96.3892C75.8363 96.3892 87.9789 109.376 92.0796 123.531C92.0796 123.531 99.0901 125.912 104.381 126.044C109.672 125.912 116.683 123.531 116.683 123.531C120.784 109.376 132.926 96.3892 132.926 96.3892L132.925 96.389C140.084 89.1416 144.505 79.1829 144.505 68.1904Z" fill="#FECC86"/>
<path d="M104.372 147.11C100.927 147.11 98.1353 144.317 98.1353 140.873H110.608C110.608 144.317 107.816 147.11 104.372 147.11Z" fill="#4CB7D8"/>
<path d="M107.677 142.58H101.066C95.5047 142.58 90.9961 138.072 90.9961 132.51V120.331H117.747V132.51C117.747 138.072 113.239 142.58 107.677 142.58Z" fill="#4CB7D8"/>
<g opacity="0.3">
<path d="M144.505 68.1904C144.505 59.9802 142.039 52.3464 137.808 45.9881C126.073 74.9057 107.357 94.3551 80.3972 101.898C83.7927 106.352 88.293 113.059 91.0144 120.331H117.747V120.333C122.557 107.479 132.926 96.3892 132.926 96.3892L132.924 96.389C140.084 89.1416 144.505 79.1829 144.505 68.1904Z" fill="#FECC86"/>
</g>
<path d="M110.938 120.488L109.789 120.174C109.826 120.037 113.568 106.278 116.164 92.1844C120.667 67.7309 118.077 62.5444 116.133 61.6294C114.145 60.6941 112.582 60.8616 111.486 62.128C111.407 62.2202 111.33 62.3174 111.257 62.4186C114.061 64.0727 114.74 66.6137 114.901 67.6424C115.346 70.4812 114.076 73.3155 112.071 73.9602C111.585 74.1161 110.651 74.1951 109.843 72.9733C108.56 71.0331 108.159 66.182 109.596 62.9472C108.216 62.383 106.537 62.0828 104.614 62.0828H103.455C101.533 62.0828 99.8526 62.383 98.4732 62.947C99.9099 66.1816 99.5091 71.0329 98.2261 72.9732C97.4183 74.1945 96.4842 74.1163 95.9981 73.9598C93.9927 73.3151 92.7227 70.481 93.1677 67.6422C93.3291 66.6135 94.0083 64.0725 96.8125 62.4184C96.7392 62.3172 96.6628 62.22 96.583 62.128C95.4878 60.8618 93.9239 60.6937 91.9365 61.6292C89.9924 62.5442 87.403 67.7307 91.9059 92.1842C94.5011 106.278 98.2431 120.037 98.2806 120.174L97.1319 120.488C97.0944 120.35 93.3408 106.548 90.7363 92.406C87.1407 72.8833 87.3675 62.4636 91.4294 60.5518C94.5811 59.0689 96.4611 60.167 97.4833 61.3489C97.6269 61.5148 97.7613 61.6914 97.8871 61.8779C99.2906 61.2808 101.106 60.8922 103.456 60.8922H104.614C106.963 60.8922 108.779 61.281 110.183 61.8779C110.308 61.6914 110.443 61.5148 110.586 61.3489C111.608 60.1668 113.488 59.0689 116.64 60.5518C120.702 62.4636 120.929 72.8833 117.333 92.406C114.729 106.548 110.975 120.35 110.938 120.488ZM97.4037 63.4724C95.7116 64.4607 94.6388 65.9456 94.3439 67.8271C93.9555 70.305 95.074 72.4129 96.3625 72.8272C96.4822 72.8657 96.8016 72.9692 97.2331 72.3169C98.3316 70.6556 98.6215 66.2678 97.4037 63.4724ZM110.665 63.4724C109.447 66.2678 109.737 70.6558 110.836 72.3169C111.268 72.9692 111.586 72.8655 111.707 72.8272C112.995 72.4129 114.114 70.305 113.725 67.8273C113.43 65.9454 112.357 64.4607 110.665 63.4724Z" fill="#F99247"/>
<path d="M90.8016 120.612C90.482 119.697 90.3378 119.362 90.0215 118.628L89.8495 118.227C84.8395 106.527 75.7104 96.6904 75.6187 96.5924L75.5899 96.5616C68.0894 88.9503 63.9597 78.8767 63.9597 68.1904C63.9597 45.9 82.0926 27.7655 104.381 27.7655C118.065 27.7655 130.716 34.61 138.222 46.0744L137.724 46.4005C130.329 35.1046 117.864 28.3607 104.381 28.3607C82.4211 28.3607 64.5551 46.2283 64.5551 68.1904C64.5551 78.7361 68.6372 88.6761 76.0492 96.1797L76.4371 96.5724L76.4093 96.5782C78.1567 98.5314 85.9122 107.521 90.3962 117.993L90.5681 118.393C90.8899 119.14 91.0367 119.481 91.3636 120.415L90.8016 120.612Z" fill="#21111D"/>
<path d="M76.36 49.6648L75.7886 49.4991C75.8174 49.3998 78.784 39.5229 88.7653 35.8096L88.973 36.3675C79.2789 39.9739 76.3881 49.5684 76.36 49.6648Z" fill="#21111D"/>
<path d="M78.1996 53.2359L77.6282 53.07C77.657 52.9706 80.6232 43.0938 90.6049 39.3805L90.8126 39.9383C81.1185 43.545 78.2279 53.1395 78.1996 53.2359Z" fill="#21111D"/>
<path d="M105.83 142.878H102.914C96.1781 142.878 90.6982 137.398 90.6982 130.662V120.034H117.747V120.629H91.2936V130.662C91.2936 137.07 96.5064 142.283 102.914 142.283H105.83C108.898 142.283 111.792 141.098 113.978 138.946L114.396 139.371C112.097 141.632 109.055 142.878 105.83 142.878Z" fill="#21111D"/>
<path d="M104.545 147.41C98.7476 147.41 97.9104 141.785 97.9023 141.728L98.492 141.647C98.5222 141.863 99.296 146.938 104.738 146.812L104.752 147.408C104.682 147.409 104.613 147.41 104.545 147.41Z" fill="#21111D"/>
<path d="M131.896 90.6537L131.541 90.1755C136.837 86.2463 137.67 79.6863 137.678 79.6203L138.269 79.6898C138.261 79.7584 137.403 86.5677 131.896 90.6537Z" fill="#21111D"/>
<path d="M130.723 87.7947L130.369 87.3167C134.228 84.453 134.838 79.6685 134.843 79.6205L135.435 79.69C135.411 79.8962 134.794 84.7742 130.723 87.7947Z" fill="#21111D"/>
<path d="M89.7681 125.68L89.7612 125.085C89.9882 125.083 112.544 124.79 119.687 122.127L119.895 122.685C112.655 125.384 90.6989 125.669 89.7681 125.68Z" fill="#21111D"/>
<path d="M89.7703 130.707L89.7593 130.112C90.006 130.107 114.484 129.622 119.059 127.171L119.341 127.696C114.639 130.214 90.7835 130.688 89.7703 130.707Z" fill="#21111D"/>
<path d="M90.9988 135.867L90.9937 135.271C91.2149 135.269 113.18 135.038 119.063 131.997L119.337 132.526C113.328 135.632 91.9077 135.859 90.9988 135.867Z" fill="#21111D"/>
<path d="M54.0283 61.874C54.003 61.874 53.9773 61.873 53.9518 61.8708L39.7529 60.6623C39.2614 60.6204 38.8969 60.1882 38.9388 59.6967C38.9803 59.2055 39.4129 58.8424 39.904 58.8827L54.1029 60.0912C54.5944 60.1331 54.9589 60.5653 54.917 61.0566C54.8775 61.5224 54.4871 61.874 54.0283 61.874Z" fill="#F99247"/>
<path d="M61.3721 39.2511C61.1985 39.2511 61.0231 39.2005 60.8686 39.0951L49.1079 31.0472C48.701 30.7687 48.5969 30.213 48.8754 29.8059C49.1535 29.3992 49.709 29.2947 50.1165 29.5732L61.8772 37.621C62.2842 37.8996 62.3883 38.4552 62.1097 38.8624C61.9369 39.115 61.657 39.2511 61.3721 39.2511Z" fill="#F99247"/>
<path d="M82.6285 23.0233C82.2759 23.0233 81.942 22.8129 81.801 22.4662L76.4375 9.2625C76.2518 8.80579 76.4719 8.28489 76.9288 8.09921C77.3849 7.91352 77.9062 8.13338 78.0919 8.59048L83.4554 21.794C83.6411 22.2507 83.421 22.7716 82.9641 22.9573C82.8543 23.002 82.7403 23.0233 82.6285 23.0233Z" fill="#F99247"/>
<path d="M154.02 64.447C153.554 64.447 153.161 64.0849 153.13 63.6128C153.098 63.1207 153.47 62.6954 153.962 62.6628L168.182 61.7235C168.67 61.6915 169.099 62.0637 169.131 62.5558C169.164 63.0478 168.792 63.4731 168.299 63.5057L154.08 64.445C154.06 64.4464 154.04 64.447 154.02 64.447Z" fill="#F99247"/>
<path d="M147.106 41.6889C146.815 41.6889 146.53 41.5471 146.358 41.2861C146.088 40.8739 146.202 40.3202 146.615 40.0495L158.526 32.2259C158.938 31.9551 159.492 32.0701 159.762 32.4819C160.033 32.8942 159.918 33.4479 159.506 33.7185L147.595 41.5421C147.444 41.6415 147.274 41.6889 147.106 41.6889Z" fill="#F99247"/>
<path d="M128.912 22.9711C128.794 22.9711 128.675 22.9476 128.56 22.8986C128.107 22.7045 127.897 22.1794 128.091 21.7263L133.704 8.62662C133.898 8.17327 134.423 7.96408 134.876 8.15767C135.329 8.35185 135.539 8.8769 135.345 9.33005L129.733 22.4297C129.588 22.7683 129.258 22.9711 128.912 22.9711Z" fill="#F99247"/>
<path d="M106.023 16.0362C106.018 16.0362 106.013 16.0362 106.008 16.036C105.515 16.0285 105.122 15.6226 105.129 15.1293L105.349 0.879236C105.356 0.390926 105.755 0 106.241 0C106.246 0 106.251 1.39857e-06 106.255 0.000198935C106.749 0.00770533 107.142 0.413644 107.135 0.906695L106.915 15.1568C106.907 15.6455 106.509 16.0362 106.023 16.0362Z" fill="#F99247"/>
<g opacity="0.5">
<path d="M131.313 48.8407C129.908 51.0207 125.07 50.4034 120.506 47.4619C115.941 44.5204 113.38 40.3686 114.785 38.1887C116.189 36.0087 121.028 36.626 125.592 39.5676C130.156 42.5091 132.718 46.6609 131.313 48.8407Z" fill="#F3FFFE"/>
</g>
<path d="M228.526 145.071H181.833C180.341 145.071 179.132 146.281 179.132 147.772V170.39C179.132 171.882 180.341 173.091 181.833 173.091H185.81L183.998 178.039L191.154 173.091H228.526C230.017 173.091 231.226 171.882 231.226 170.39V147.772C231.226 146.281 230.017 145.071 228.526 145.071Z" fill="white"/>
<path d="M226.334 162.717H182.896C182.596 162.717 182.352 162.473 182.352 162.173C182.352 161.872 182.596 161.628 182.896 161.628H226.334C226.635 161.628 226.879 161.872 226.879 162.173C226.879 162.474 226.635 162.717 226.334 162.717Z" fill="#B1E8FC"/>
<path d="M211.12 150.351H182.896C182.596 150.351 182.352 150.108 182.352 149.807C182.352 149.506 182.596 149.262 182.896 149.262H211.12C211.421 149.262 211.665 149.506 211.665 149.807C211.665 150.108 211.421 150.351 211.12 150.351Z" fill="#B1E8FC"/>
<path d="M195.1 168.9H182.896C182.596 168.9 182.352 168.657 182.352 168.356C182.352 168.055 182.596 167.811 182.896 167.811H195.1C195.4 167.811 195.644 168.055 195.644 168.356C195.644 168.657 195.4 168.9 195.1 168.9Z" fill="#B1E8FC"/>
<path d="M226.334 168.9H198.917C198.616 168.9 198.373 168.657 198.373 168.356C198.373 168.055 198.616 167.811 198.917 167.811H226.334C226.635 167.811 226.879 168.055 226.879 168.356C226.879 168.657 226.635 168.9 226.334 168.9Z" fill="#B1E8FC"/>
<path d="M226.657 150.351H215.394C215.093 150.351 214.85 150.108 214.85 149.807C214.85 149.506 215.093 149.262 215.394 149.262H226.657C226.957 149.262 227.201 149.506 227.201 149.807C227.201 150.108 226.957 150.351 226.657 150.351Z" fill="#B1E8FC"/>
<path d="M200.637 156.534H182.896C182.596 156.534 182.352 156.291 182.352 155.99C182.352 155.689 182.596 155.445 182.896 155.445H200.637C200.938 155.445 201.181 155.689 201.181 155.99C201.181 156.29 200.938 156.534 200.637 156.534Z" fill="#B1E8FC"/>
<path d="M226.657 156.534H204.615C204.315 156.534 204.071 156.291 204.071 155.99C204.071 155.689 204.314 155.445 204.615 155.445H226.657C226.958 155.445 227.201 155.689 227.201 155.99C227.201 156.29 226.958 156.534 226.657 156.534Z" fill="#B1E8FC"/>
<path d="M206.317 195.299H206.374H212.253L210.767 212.807H206.374H206.317H201.766L200.438 195.299H206.317Z" fill="#FF424D"/>
<path d="M202.007 192.228H206.317H206.374H210.684C211.188 192.228 211.597 192.64 211.597 193.149H206.374H206.317H201.093C201.093 192.64 201.502 192.228 202.007 192.228Z" fill="#21111D"/>
<path d="M200.569 193.622C200.626 193.346 200.867 193.149 201.146 193.149H206.317H206.374H211.544C211.824 193.149 212.065 193.346 212.122 193.622L212.613 195.963C212.69 196.333 212.41 196.681 212.035 196.681H206.374H206.317H200.656C200.281 196.681 200.001 196.333 200.078 195.963L200.569 193.622Z" fill="#44243D"/>
<path d="M211.962 200.674L211.578 207.791H206.382H206.309H201.113L200.728 200.674H206.309H206.382H211.962Z" fill="#FEC786"/>
<path d="M206.058 207.02C207.584 207.02 208.821 205.772 208.821 204.232C208.821 202.693 207.584 201.445 206.058 201.445C204.531 201.445 203.294 202.693 203.294 204.232C203.294 205.772 204.531 207.02 206.058 207.02Z" fill="#F3FFFE"/>
<path d="M201.113 207.962H211.74L212.133 200.684C212.138 200.589 212.066 200.509 211.972 200.504C211.881 200.497 211.797 200.571 211.792 200.665L211.416 207.62H201.113C201.019 207.62 200.942 207.696 200.942 207.791C200.942 207.886 201.019 207.962 201.113 207.962Z" fill="#21111D"/>
<path d="M203.559 198.997C203.588 198.997 203.616 198.99 203.643 198.975C203.725 198.929 203.754 198.824 203.708 198.742L202.698 196.96C202.651 196.877 202.547 196.848 202.465 196.895C202.382 196.942 202.354 197.046 202.4 197.128L203.41 198.911C203.441 198.966 203.499 198.997 203.559 198.997Z" fill="#21111D"/>
<path d="M203.39 200.021C203.419 200.021 203.449 200.014 203.476 199.998C203.557 199.951 203.585 199.846 203.538 199.764L202.624 198.194C202.577 198.113 202.472 198.085 202.39 198.132C202.308 198.18 202.281 198.285 202.328 198.367L203.242 199.937C203.274 199.991 203.331 200.021 203.39 200.021Z" fill="#21111D"/>
<path d="M450 317.899H33.6108V319.444H450V317.899Z" fill="#21111D"/>
<path d="M350.067 216.947L400.41 217.884L401.039 184.05L388.595 183.818L388.582 184.489C388.579 184.674 388.426 184.822 388.24 184.819L382.457 184.711C382.271 184.708 382.123 184.554 382.127 184.369L382.139 183.699L369.98 183.473L369.967 184.143C369.965 184.328 369.811 184.475 369.625 184.473L363.842 184.365C363.656 184.361 363.508 184.208 363.512 184.022L363.524 183.352L350.696 183.114L350.067 216.947Z" fill="#C27764"/>
<g opacity="0.5">
<path d="M360.74 217.171L361.763 217.19L362.389 183.357L361.366 183.338L360.74 217.171Z" fill="#21111D"/>
</g>
<path d="M371.605 177.466L371.347 177.698C371.29 178.426 371.08 179.879 370.93 181.59C372.363 181.805 373.464 182.007 373.462 182.183L373.78 182.191C373.862 182.192 373.935 182.227 373.988 182.282C375.463 182.328 377.339 182.343 378.908 182.458C380.023 182.539 380.944 182.975 381.631 182.145C382.029 181.665 382.381 178.916 382.434 177.929L383.709 168.123C381.754 168.049 372.921 170.023 372.604 170.328L371.605 177.466Z" fill="#FE9F73"/>
<path d="M374.159 172.887C375.002 172.773 375.72 173.131 375.741 173.271L376.46 177.934C376.539 178.447 376.092 178.966 375.394 179.097C374.594 179.246 373.844 178.865 373.755 178.289L373.084 173.937C373.01 173.453 373.669 172.954 374.159 172.887Z" fill="#FE9F73"/>
<path d="M384.209 183.737L386.407 183.778L386.526 180.331C386.56 178.498 385.096 176.979 383.263 176.945L368.975 176.679C367.142 176.645 365.623 178.108 365.589 179.942L365.53 183.39L367.719 183.431L367.778 179.983C367.789 179.356 368.308 178.856 368.935 178.868L383.222 179.134C383.848 179.145 384.348 179.664 384.336 180.29L384.209 183.737Z" fill="#280F22"/>
<path d="M374.808 182.976C375.623 183.036 376.076 182.536 376.09 182.401L376.526 178.218C376.579 177.711 376.1 177.23 375.409 177.145C374.651 177.053 373.973 177.444 373.916 177.99L373.482 182.155C373.482 182.155 373.992 182.917 374.808 182.976Z" fill="#FE9F73"/>
<path d="M377.145 183.18C377.959 183.251 378.638 182.906 378.656 182.771L379.244 178.272C379.311 177.766 378.844 177.279 378.155 177.184C377.4 177.081 376.711 177.463 376.639 178.008L376.036 182.622C376.036 182.622 376.331 183.109 377.145 183.18Z" fill="#FE9F73"/>
<path d="M379.775 182.974C380.532 183.046 381.17 182.73 381.189 182.605L381.804 178.42C381.874 177.95 381.446 177.492 380.805 177.399C380.103 177.297 379.456 177.646 379.381 178.153L378.75 182.445C378.75 182.445 379.017 182.901 379.775 182.974Z" fill="#FE9F73"/>
<path d="M372.003 182.477C372.816 182.56 373.493 182.195 373.51 182.06L374.055 177.563C374.115 177.068 373.67 176.584 372.996 176.481C372.224 176.362 371.516 176.751 371.448 177.306L370.94 181.503C370.883 181.969 371.531 182.429 372.003 182.477Z" fill="#FE9F73"/>
<path d="M373.723 182.113C373.689 182.192 373.583 182.244 373.466 182.233C373.33 182.222 373.23 182.132 373.243 182.034L373.81 177.536C373.861 177.113 373.47 176.724 372.918 176.652C372.623 176.613 372.331 176.663 372.097 176.792C371.864 176.921 371.72 177.111 371.694 177.327L371.195 181.443C371.181 181.541 371.063 181.613 370.928 181.601C370.792 181.59 370.692 181.501 370.704 181.402L371.203 177.285C371.241 176.975 371.456 176.69 371.793 176.503C372.135 176.314 372.562 176.241 372.993 176.298C373.801 176.404 374.375 176.966 374.301 177.578L373.734 182.076C373.732 182.089 373.728 182.101 373.723 182.113Z" fill="#F07162"/>
<path d="M378.774 182.671C378.741 182.752 378.632 182.805 378.512 182.793C378.376 182.779 378.279 182.689 378.293 182.59L378.95 178.213C379.006 177.787 378.663 177.436 378.115 177.361C377.82 177.321 377.529 177.369 377.293 177.497C377.058 177.625 376.913 177.814 376.885 178.03L376.281 182.644C376.269 182.742 376.148 182.812 376.012 182.8C375.877 182.788 375.777 182.698 375.79 182.6L376.394 177.986C376.434 177.676 376.652 177.392 376.992 177.207C377.336 177.019 377.763 176.949 378.194 177.008C378.997 177.118 379.521 177.644 379.441 178.259L378.783 182.639C378.782 182.65 378.779 182.661 378.774 182.671Z" fill="#F07162"/>
<path d="M381.259 182.61C381.226 182.691 381.117 182.744 380.997 182.732C380.862 182.719 380.764 182.628 380.779 182.53L381.394 178.345C381.451 177.958 381.102 177.597 380.598 177.524C380.329 177.485 380.06 177.527 379.843 177.642C379.626 177.757 379.49 177.929 379.461 178.126L378.829 182.418C378.816 182.515 378.694 182.585 378.558 182.572C378.423 182.559 378.325 182.468 378.339 182.37L378.971 178.079C379.014 177.786 379.224 177.521 379.546 177.349C379.873 177.175 380.277 177.112 380.682 177.171C381.441 177.282 381.969 177.818 381.884 178.393L381.268 182.578C381.267 182.589 381.264 182.6 381.259 182.61Z" fill="#F07162"/>
<path d="M375.881 171.993L376.1 175.933L376.232 177.833L375.967 178.396L374.934 178.761L373.892 178.373L373.49 177.42L372.525 173.47L374.641 171.11L375.881 171.993Z" fill="#FE9F73"/>
<path d="M376.247 172.619C376.203 172.542 376.087 172.5 375.967 172.524C375.827 172.551 375.734 172.655 375.758 172.756L376.074 177.462C376.175 177.894 375.813 178.341 375.25 178.478C374.949 178.551 374.641 178.532 374.384 178.424C374.127 178.317 373.957 178.136 373.906 177.916L372.928 173.708C372.903 173.609 372.772 173.548 372.633 173.575C372.494 173.602 372.401 173.705 372.424 173.806L373.402 178.014C373.476 178.331 373.731 178.602 374.101 178.758C374.477 178.915 374.927 178.943 375.368 178.836C376.192 178.635 376.724 177.989 376.578 177.364L376.262 172.657C376.259 172.643 376.254 172.631 376.247 172.619Z" fill="#F07162"/>
<path d="M382.457 184.711L388.24 184.819C388.426 184.822 388.579 184.674 388.582 184.489L388.595 183.818L382.139 183.699L382.127 184.369C382.123 184.554 382.271 184.708 382.457 184.711Z" fill="#C27764"/>
<path d="M369.625 184.473C369.811 184.476 369.965 184.328 369.967 184.143L369.98 183.473L363.524 183.353L363.512 184.023C363.508 184.208 363.656 184.362 363.842 184.365L369.625 184.473Z" fill="#C27764"/>
<path d="M313.322 174.767C314.715 176.558 315.075 174.793 315.075 174.793C315.922 175.677 316.352 175.51 316.564 175.217C316.718 175.003 316.751 174.723 316.67 174.472C316.415 173.672 315.626 171.234 315.042 169.738C315.179 168.708 316.902 169.144 317.767 169.662C318.213 169.928 318.973 169.991 318.275 168.822C317.706 167.866 315.729 166.362 315.729 166.362L316.635 160.632L308.639 161.005C308.639 161.005 308.329 167.592 308.276 168.584C308.222 169.576 309.15 172.965 309.962 174.021C311.435 175.938 311.586 174.798 311.586 174.798C313.303 176.645 313.322 174.767 313.322 174.767Z" fill="#FE9F73"/>
<path d="M313.891 172.633C313.89 172.582 313.922 172.535 313.972 172.518C314.034 172.496 314.102 172.53 314.124 172.592C314.424 173.467 315.171 174.719 315.178 174.732C315.212 174.788 315.194 174.862 315.137 174.896C315.08 174.93 315.007 174.911 314.973 174.855C314.942 174.803 314.206 173.568 313.898 172.67C313.894 172.657 313.891 172.645 313.891 172.633Z" fill="#F07162"/>
<path d="M312.378 172.659C312.377 172.602 312.417 172.552 312.474 172.54C312.539 172.527 312.602 172.569 312.615 172.633C312.84 173.736 313.418 174.696 313.424 174.706C313.458 174.762 313.44 174.836 313.384 174.87C313.328 174.904 313.254 174.886 313.22 174.83C313.195 174.789 312.614 173.826 312.381 172.681C312.379 172.674 312.379 172.666 312.378 172.659Z" fill="#F07162"/>
<path d="M310.659 172.954C310.658 172.899 310.695 172.849 310.751 172.836C310.815 172.821 310.879 172.861 310.894 172.925C311.116 173.871 311.68 174.723 311.686 174.732C311.722 174.786 311.707 174.861 311.652 174.897C311.598 174.934 311.523 174.919 311.487 174.864C311.462 174.828 310.893 173.968 310.662 172.98C310.66 172.971 310.659 172.963 310.659 172.954Z" fill="#F07162"/>
<path d="M362.452 97.1036C362.452 97.1036 380.806 115.999 385.236 127.673C389.665 139.348 384.884 172.843 384.884 172.843C384.884 172.843 378.992 174.178 372.065 171.596L372.634 139.518L356.463 112.298L362.452 97.1036Z" fill="#33192C"/>
<path d="M348.814 313.523L362.421 313.71L362.616 300.878L349.063 299.185L348.814 313.523Z" fill="#FE9F73"/>
<path d="M363.904 169.54C363.904 169.54 367.543 253.446 363.472 302.887C363.472 302.887 355.74 307.758 345.137 303.542L332.315 182.993L326.871 150.738L363.904 169.54Z" fill="#281324"/>
<path d="M352.974 305.444C358.823 305.444 363.531 303.177 363.598 303.144L363.727 303.081L363.754 302.939C367.238 284.081 365.014 191.145 364.991 190.209C364.988 190.053 364.86 189.929 364.705 189.929C364.703 189.929 364.701 189.929 364.698 189.929C364.54 189.933 364.415 190.065 364.419 190.223C364.441 191.156 366.652 283.56 363.217 302.69C362.056 303.218 353.311 306.941 345.255 303.281C345.112 303.215 344.941 303.279 344.876 303.423C344.81 303.568 344.874 303.738 345.018 303.803C347.694 305.019 350.441 305.444 352.974 305.444Z" fill="black"/>
<path d="M358.793 304.754C358.949 304.754 359.077 304.629 359.079 304.472L359.582 270.811C359.584 270.653 359.458 270.523 359.299 270.521C359.298 270.521 359.297 270.521 359.295 270.521C359.139 270.521 359.011 270.646 359.009 270.803L358.506 304.463C358.504 304.622 358.63 304.752 358.788 304.754C358.789 304.754 358.791 304.754 358.793 304.754Z" fill="black"/>
<path d="M327.739 303.884C327.89 303.884 328.016 303.767 328.025 303.614L329.911 270.824C329.92 270.666 329.8 270.53 329.642 270.521C329.483 270.505 329.348 270.633 329.339 270.791L327.453 303.581C327.444 303.739 327.564 303.874 327.722 303.884C327.728 303.884 327.734 303.884 327.739 303.884Z" fill="black"/>
<path d="M362.642 315.341H350.891L346.126 310.017L337.412 315.341H335.535C334.889 315.341 334.296 315.789 334.174 316.441C334.01 317.318 334.661 318.084 335.486 318.084H362.81C363.011 318.084 363.173 317.917 363.173 317.711V315.885C363.173 315.585 362.935 315.341 362.642 315.341Z" fill="#FEC786"/>
<path d="M362.538 315.356V310.408C362.538 310.408 360.559 307.675 357.546 309.07C357.546 309.07 352.988 312.387 348.97 308.373L338.993 312.913C338.993 312.913 336.258 313.85 335.517 315.356H362.538Z" fill="#4C222E"/>
<path d="M362.638 310.408H362.438V315.331H362.638V310.408Z" fill="black"/>
<path d="M353.461 310.462C353.079 310.462 352.849 310.428 352.842 310.427L352.871 310.224C352.895 310.227 355.25 310.566 357.489 308.985L357.603 309.155C355.998 310.287 354.334 310.462 353.461 310.462Z" fill="black"/>
<path d="M360.11 314.432L359.998 314.261L361.273 313.38L361.385 313.55L360.11 314.432Z" fill="black"/>
<path d="M359.196 314.182L359.084 314.012L360.359 313.131L360.47 313.301L359.196 314.182Z" fill="black"/>
<path d="M334.556 317.846C334.233 317.566 334.048 317.156 334.048 316.722C334.048 315.909 334.693 315.247 335.486 315.247H362.503C362.928 315.247 363.273 315.602 363.273 316.038V317.406H363.073V316.038C363.073 315.715 362.817 315.452 362.503 315.452H335.486C334.803 315.452 334.248 316.022 334.248 316.722C334.248 317.095 334.407 317.448 334.685 317.69L334.556 317.846Z" fill="black"/>
<path d="M335.576 315.394L335.395 315.306C335.417 315.257 335.965 314.107 338.007 313.214C340.014 312.336 348.841 308.32 348.929 308.279L349.011 308.467C348.922 308.507 340.093 312.524 338.085 313.403C336.121 314.262 335.581 315.383 335.576 315.394Z" fill="black"/>
<path d="M318.017 313.523L331.623 313.71L331.818 300.878L318.266 299.185L318.017 313.523Z" fill="#FE9F73"/>
<path d="M348.291 172.546C348.291 172.546 340.256 253.832 334.043 302.955C334.043 302.955 325.766 305.559 315.36 300.692L314.918 175.243L313.416 156.448L348.291 172.546Z" fill="#33192C"/>
<path d="M328.085 303.881C329.971 303.881 331.994 303.697 334.104 303.235C334.259 303.201 334.357 303.048 334.323 302.894C334.289 302.739 334.134 302.643 333.982 302.675C324.477 304.754 316.79 301.103 315.646 300.519L315.205 182.496C315.204 182.338 314.919 182 314.919 181.842C314.919 177.757 314.918 182.211 314.918 182.211C314.759 182.212 314.632 182.34 314.632 182.498L315.075 300.861L315.221 300.943C315.287 300.979 320.608 303.881 328.085 303.881Z" fill="black"/>
<path d="M331.699 315.341H319.948L315.184 310.017L306.469 315.341H304.593C303.946 315.341 303.353 315.789 303.231 316.441C303.067 317.318 303.718 318.084 304.543 318.084H331.867C332.068 318.084 332.231 317.917 332.231 317.711V315.885C332.23 315.585 331.993 315.341 331.699 315.341Z" fill="#FEC786"/>
<path d="M331.595 315.356V310.408C331.595 310.408 329.616 307.675 326.603 309.07C326.603 309.07 322.046 312.387 318.028 308.373L308.05 312.913C308.05 312.913 305.315 313.85 304.574 315.356H331.595Z" fill="#4C222E"/>
<path d="M331.696 310.408H331.496V315.331H331.696V310.408Z" fill="black"/>
<path d="M322.519 310.462C322.137 310.462 321.907 310.428 321.899 310.427L321.929 310.224C321.952 310.227 324.307 310.566 326.547 308.985L326.66 309.155C325.055 310.287 323.391 310.462 322.519 310.462Z" fill="black"/>
<path d="M329.167 314.432L329.055 314.261L330.33 313.38L330.442 313.55L329.167 314.432Z" fill="black"/>
<path d="M328.253 314.182L328.142 314.012L329.416 313.131L329.528 313.301L328.253 314.182Z" fill="black"/>
<path d="M303.613 317.846C303.291 317.566 303.106 317.156 303.106 316.722C303.106 315.909 303.75 315.247 304.543 315.247H331.56C331.985 315.247 332.331 315.602 332.331 316.038V317.406H332.131V316.038C332.131 315.715 331.875 315.452 331.56 315.452H304.543C303.861 315.452 303.306 316.022 303.306 316.722C303.306 317.095 303.465 317.448 303.743 317.69L303.613 317.846Z" fill="black"/>
<path d="M304.634 315.394L304.453 315.306C304.475 315.257 305.022 314.107 307.064 313.214C309.071 312.336 317.898 308.32 317.987 308.279L318.068 308.467C317.979 308.507 309.151 312.524 307.143 313.403C305.178 314.262 304.639 315.383 304.634 315.394Z" fill="black"/>
<path d="M331.37 73.8115V85.3816C331.37 85.3816 331.207 89.2926 334.629 89.7815L333.99 94.9994C333.753 96.9391 334.913 98.7961 336.776 99.3859C337.687 99.6743 338.774 99.8849 340.007 99.8849C343.919 99.8849 346.037 96.9517 346.363 95.485C346.689 94.0183 345.711 87.0113 345.711 87.0113L345.83 83.568L345.385 70.2266L331.37 73.8115Z" fill="#FE9F73"/>
<path d="M344.765 69.2395C344.765 69.2395 348.527 69.0583 349.577 72.6798C350.628 76.301 349.215 78.1976 349.179 79.2773C349.143 80.3568 349.875 87.6357 344.765 87.0924L343.385 75.0698L345.163 70.2831L344.765 69.2395Z" fill="#223749"/>
<path d="M333.89 74.9431C333.89 74.9431 333.581 78.3425 333.89 79.2695C334.199 80.1966 337.908 82.669 337.908 82.669C337.908 82.669 338.217 89.1586 338.835 89.4676C339.453 89.7767 344.934 88.5832 346.675 86.8621C348.416 85.1411 346.562 71.5437 346.562 71.5437C346.562 71.5437 345.016 69.6894 343.471 69.3805C341.926 69.0715 334.508 68.4534 334.818 69.3805C335.127 70.3077 333.89 74.9431 333.89 74.9431Z" fill="#223749"/>
<path d="M334.818 80.8716C334.818 82.4916 336.104 83.8049 337.69 83.8049C339.276 83.8049 340.562 82.4916 340.562 80.8716C340.562 79.2516 339.276 77.9384 337.69 77.9384C336.104 77.9384 334.818 79.2516 334.818 80.8716Z" fill="#FE9F73"/>
<path d="M337.902 82.6693C338.499 82.6693 338.898 82.2112 339.029 81.7537C339.184 81.2122 339.006 80.6864 338.576 80.4134C337.94 80.0102 337.363 80.269 337.068 80.4673C337.191 80.1345 337.386 79.8921 337.648 79.7451C338.214 79.4271 338.915 79.6588 338.922 79.6612C338.964 79.6754 339.009 79.6523 339.023 79.6094C339.037 79.5668 339.015 79.5207 338.973 79.5065C338.942 79.4959 338.2 79.2499 337.572 79.6017C337.21 79.8048 336.963 80.1645 336.839 80.6704L336.77 80.9543L336.973 80.748C337.001 80.7188 337.685 80.0405 338.492 80.5519C338.939 80.8351 338.978 81.3517 338.876 81.7079C338.77 82.0777 338.452 82.5065 337.903 82.5065C337.898 82.5065 337.893 82.5061 337.887 82.5063C337.844 82.5063 337.808 82.5419 337.807 82.5867C337.807 82.6316 337.842 82.6687 337.886 82.6693C337.891 82.6691 337.897 82.6693 337.902 82.6693Z" fill="#F07162"/>
<path d="M347.42 93.7004C347.428 93.3494 346.43 90.4715 346.43 90.4715H334.098L332.588 95.034L347.42 93.7004Z" fill="white"/>
<path d="M342.307 67.5266C341.332 67.509 340.337 67.7271 339.392 67.4879C338.8 67.3382 338.269 67.0186 337.726 66.739C336.462 66.0878 334.923 65.6465 333.642 66.2624C333.238 66.4566 332.881 66.7471 332.461 66.9028C331.684 67.1906 330.787 66.982 330.015 67.2825C329.201 67.5989 328.682 68.4373 328.511 69.2938C328.339 70.1503 328.458 71.0353 328.577 71.9005C328.624 72.2456 328.679 72.6094 328.898 72.8811C329.056 73.0784 329.285 73.205 329.507 73.3267C330.112 73.6582 330.717 73.9894 331.322 74.3209C331.681 74.5175 332.047 74.7166 332.449 74.7942C333.383 74.9745 334.308 74.4732 335.257 74.4029C336.502 74.3104 337.668 74.9582 338.878 75.2649C341.126 75.8342 343.671 75.1272 345.244 73.4243C346.035 72.5688 347.342 70.6167 346.629 69.4793C345.83 68.2046 343.708 67.5515 342.307 67.5266Z" fill="#223749"/>
<path d="M334.973 79.9201C334.973 79.9201 335.725 88.7946 335.607 89.2387C335.488 89.6827 333.446 90.1564 332.114 90.0675C330.782 89.9786 330.9 81.8235 330.9 81.8235C330.9 81.8235 332.807 81.4871 333.259 81.0411C333.712 80.595 333.76 77.2203 333.76 77.2203L334.973 79.9201Z" fill="#223749"/>
<path d="M287.523 126.91C287.523 126.91 307.71 101.455 316.457 96.9805C325.204 92.5055 320.835 120.357 320.835 120.357L304.725 131.826L321.926 161.438L307.54 162.15C307.54 162.15 282.244 139.107 287.523 126.91Z" fill="#33192C"/>
<path d="M323.505 94.5688C323.505 94.5688 314.768 95.7824 312.826 100.879C310.884 105.976 312.379 185.959 312.379 185.959C312.379 185.959 354.187 190.921 368.157 183.583C368.157 183.583 366.551 104.262 363.542 98.4867C359.002 89.7752 323.505 94.5688 323.505 94.5688Z" fill="#49263E"/>
<g opacity="0.5">
<path d="M394.802 217.779L400.41 217.884L401.039 184.05H395.458L394.802 217.779Z" fill="#C27764"/>
</g>
</svg>
