<svg width="50" height="50" viewBox="0 0 50 50" fill="none" xmlns="http://www.w3.org/2000/svg">
<g clip-path="url(#clip0_225_15307)">
<path d="M11.8164 25C11.8164 15.1597 18.357 6.53311 27.6252 3.83809L29.3908 0.397852C27.9415 0.141602 26.4674 0 25 0C11.2686 0 0 11.2686 0 25C0 38.7314 11.2686 50 25 50C26.4689 50 27.9449 49.8584 29.396 49.6015L29.0827 46.4504C19.0464 44.2667 11.8164 35.3508 11.8164 25Z" fill="#7CAEF8"/>
<path d="M37.3046 3.37915C45.0681 7.74439 49.9999 15.9183 49.9999 25.0002C49.9999 26.4636 49.8484 27.9475 49.5907 29.3899L49.5887 29.3889L49.5897 29.3948L49.5604 29.6584C49.2089 31.5333 48.5254 33.4085 47.705 35.2249L47.412 35.8694V35.8987C47.3827 35.9865 47.3241 36.0454 47.2948 36.1331C46.914 36.8947 46.4745 37.6273 46.035 38.3596C45.7715 38.7697 45.4783 39.1801 45.1561 39.5901C44.9511 39.9124 44.7165 40.2347 44.453 40.5569C44.0722 41.0255 43.6913 41.465 43.2518 41.9045C41.5527 43.7794 39.5311 45.3616 37.3339 46.6213H30.2733C25.0586 43.633 21.0156 38.7991 19.0819 33.1155H19.0233L18.7528 32.179C18.7139 32.0516 18.6764 31.9245 18.6425 31.7971L18.6337 31.7649C18.5889 31.6113 18.5469 31.4576 18.5067 31.304L18.2323 30.303H18.2616C17.8807 28.5453 17.6757 26.7873 17.6757 25.0002V24.678L17.6171 24.7073L17.705 23.7991C17.7196 23.594 17.7272 23.3963 17.7382 23.1985C17.7437 23.0995 17.75 23.0005 17.7587 22.9006C17.7674 22.8009 17.7782 22.7003 17.7928 22.5979C17.8047 22.456 17.8222 22.3191 17.8417 22.1848L17.91 21.6018H17.9393C18.3991 18.1071 19.5835 14.7947 21.4442 11.8167H21.2792L22.4071 10.3879C22.6387 10.0691 22.8767 9.75327 23.1249 9.4436L23.5643 8.88696H23.6083C25.5513 6.57187 27.9659 4.64407 30.6796 3.15454L37.3046 3.37915Z" fill="#5374E9"/>
<path d="M34.3164 45.3907C28.0762 42.8419 23.2714 37.4512 21.4551 30.9766C21.338 30.5665 21.2208 30.1271 21.1328 29.7168C20.7812 28.1642 20.6055 26.582 20.6055 25C20.6055 24.2969 20.6348 23.6231 20.7226 22.9198C21.1034 18.8769 22.5683 15.0683 25 11.8164L25.4396 11.2598C27.7246 8.38877 30.8007 6.07412 34.3164 4.60928L37.3047 3.37891C36.4843 2.88096 35.6054 2.44141 34.6973 2.06055C34.6973 2.06055 34.0819 1.82627 33.9941 1.79697C32.5293 1.21104 31.1231 0.703125 29.6583 0.439551L29.3945 0.380859L29.1308 0.439551C17.3829 2.66592 8.88672 13.0468 8.88672 25C8.88672 36.9532 17.3829 47.3341 29.1308 49.5605L29.3945 49.6191L29.6583 49.5605C31.1231 49.2969 32.5293 48.7891 33.9941 48.203C34.0819 48.1737 34.1992 48.1152 34.287 48.0859L34.7852 47.8809C35.6641 47.5293 36.5136 47.0898 37.334 46.6211L34.3164 45.3907Z" fill="#6C8DFF"/>
</g>
<defs>
<clipPath id="clip0_225_15307">
<rect width="50" height="50" fill="white"/>
</clipPath>
</defs>
</svg>
