<svg width="402" height="491" viewBox="0 0 402 491" fill="none" xmlns="http://www.w3.org/2000/svg">
<path d="M401.805 315.534V464.345C363.757 473.887 332.3 481.775 295.513 491L283.703 415.79L295.513 340.579L347.084 318.317L401.805 315.534Z" fill="#5EBA3F"/>
<path d="M295.513 23.6929V317.781L255.88 340.13L201.032 347.218L189.222 115.596L201.032 47.7508L248.272 24.0577L295.513 23.6929Z" fill="#5374E9"/>
<path d="M201.032 47.7508V327.95L153.792 322.571L106.551 298.513C106.551 294.837 106.551 27.3677 106.551 23.6929L153.792 24.0577L201.032 47.7508Z" fill="#6C8DFF"/>
<path d="M201.033 0C189.528 2.88502 117.981 20.8272 106.551 23.6934C118.046 26.6203 189.607 44.8407 201.031 47.75V47.751H201.033V47.75C212.533 44.8216 284.094 26.6012 295.512 23.6934C284.008 20.8085 212.467 2.86736 201.033 0Z" fill="#7CAEF8"/>
<path d="M295.513 340.579V491C283.789 488.06 212.588 470.205 201.032 467.307L189.222 392.812L201.032 318.317C214.977 318.998 244.339 320.432 252.603 320.836C257.814 323.233 290.283 338.173 295.513 340.579Z" fill="#6BCD49"/>
<path d="M201.031 318.317C212.529 321.027 284.09 337.888 295.513 340.58V340.577L295.514 340.58C308.468 337.528 388.878 318.581 401.805 315.535C388.87 312.291 308.364 292.103 295.514 288.88L295.513 288.879C230.053 309.274 265.915 298.102 201.031 318.317Z" fill="#C9F87C"/>
<path d="M106.551 340.579L94.741 415.789L106.551 490.999C117.98 488.133 189.528 470.191 201.032 467.306C201.032 459.033 201.032 326.588 201.032 318.316L153.792 320.045L106.551 340.579Z" fill="#F39321"/>
<path d="M0.259903 315.534V464.345C38.3075 473.887 69.765 481.775 106.551 491C106.551 482.639 106.551 348.94 106.551 340.579L53.4056 318.317L0.259903 315.534Z" fill="#F3A141"/>
<path d="M106.551 288.88L0.259888 315.534C13.1862 318.581 93.5953 337.526 106.551 340.578H106.552L153.792 329.449L201.032 318.318C181.474 312.224 165.945 307.384 153.617 303.544C96.5184 285.753 108.144 289.376 106.551 288.879V288.88Z" fill="#F8C67C"/>
</svg>
