<svg width="307" height="179" viewBox="0 0 307 179" fill="none" xmlns="http://www.w3.org/2000/svg">
<path fill-rule="evenodd" clip-rule="evenodd" d="M235.702 2.97876C238.932 3.89261 242.13 4.88492 245.291 5.95616C244.865 8.31662 242.799 10.1082 240.314 10.1082C237.522 10.1082 235.257 7.84517 235.257 5.05398C235.257 4.3142 235.416 3.61217 235.702 2.97876ZM294.077 30.4572C296.265 31.9649 298.427 33.5062 300.551 35.0983C300.099 35.2298 299.622 35.301 299.129 35.301C296.406 35.301 294.187 33.151 294.077 30.4572ZM323.484 55.2174C325.178 56.9486 326.85 58.7011 328.48 60.4929C325.713 60.4631 323.479 58.2122 323.479 55.4394C323.479 55.365 323.481 55.2911 323.484 55.2174ZM356.926 100.873C358.454 103.742 359.913 106.653 361.302 109.603C360.409 110.397 359.232 110.879 357.943 110.879C355.15 110.879 352.886 108.616 352.886 105.825C352.886 103.382 354.621 101.344 356.926 100.873ZM361.302 278.397C359.913 281.347 358.454 284.258 356.926 287.127C354.621 286.656 352.886 284.618 352.886 282.175C352.886 279.384 355.15 277.121 357.943 277.121C359.232 277.12 360.409 277.603 361.302 278.397ZM328.48 327.507C326.85 329.299 325.178 331.051 323.484 332.782C323.481 332.709 323.479 332.634 323.479 332.56C323.479 329.788 325.713 327.537 328.48 327.507ZM300.55 352.902C298.427 354.494 296.265 356.035 294.077 357.542C294.187 354.849 296.406 352.699 299.129 352.699C299.622 352.699 300.099 352.77 300.55 352.902ZM245.291 382.043C242.13 383.115 238.932 384.107 235.702 385.021C235.416 384.388 235.257 383.685 235.257 382.946C235.257 380.154 237.522 377.892 240.314 377.892C242.799 377.892 244.865 379.683 245.291 382.043ZM127.298 385.021C124.068 384.107 120.87 383.114 117.709 382.044C118.135 379.683 120.201 377.892 122.686 377.892C125.478 377.892 127.743 380.155 127.743 382.946C127.743 383.686 127.584 384.388 127.298 385.021ZM68.9235 357.542C66.7355 356.035 64.5731 354.493 62.4499 352.902C62.9008 352.77 63.378 352.699 63.8714 352.699C66.5938 352.699 68.8127 354.849 68.9235 357.542ZM39.5162 332.782C37.8221 331.052 36.1502 329.299 34.52 327.507C37.2872 327.537 39.5212 329.788 39.5212 332.561C39.5212 332.634 39.5194 332.709 39.5162 332.782ZM6.07393 287.127C4.54624 284.258 3.08789 281.347 1.69866 278.396C2.59171 277.603 3.76832 277.12 5.0573 277.12C7.84995 277.12 10.1141 279.383 10.1141 282.175C10.1139 284.618 8.37932 286.656 6.07393 287.127ZM1.69843 109.603C3.08766 106.653 4.54601 103.742 6.07371 100.873C8.3791 101.344 10.1139 103.382 10.1139 105.825C10.1139 108.616 7.84972 110.879 5.05707 110.879C3.76809 110.879 2.59171 110.397 1.69843 109.603ZM34.5195 60.4931C36.15 58.7015 37.8216 56.9486 39.5157 55.2177C39.5189 55.2911 39.521 55.3652 39.521 55.4398C39.5212 58.2125 37.2868 60.4634 34.5195 60.4931ZM62.4495 35.0985C64.5731 33.5067 66.7353 31.9651 68.9232 30.4574C68.8127 33.1512 66.5936 35.3012 63.8712 35.3012C63.3778 35.301 62.9008 35.2301 62.4495 35.0985ZM117.709 5.95616C120.87 4.88515 124.067 3.89261 127.298 2.97876C127.584 3.61194 127.743 4.3142 127.743 5.05398C127.743 7.84517 125.478 10.1082 122.686 10.1082C120.201 10.1082 118.135 8.31662 117.709 5.95616ZM357.943 251.928C360.736 251.928 363 254.191 363 256.982C363 259.773 360.736 262.036 357.943 262.036C355.15 262.036 352.886 259.773 352.886 256.982C352.886 254.191 355.15 251.928 357.943 251.928ZM357.943 226.735C360.736 226.735 363 228.998 363 231.789C363 234.58 360.736 236.843 357.943 236.843C355.15 236.843 352.886 234.58 352.886 231.789C352.886 228.998 355.15 226.735 357.943 226.735ZM357.943 201.542C360.736 201.542 363 203.805 363 206.596C363 209.388 360.736 211.65 357.943 211.65C355.15 211.65 352.886 209.387 352.886 206.596C352.886 203.805 355.15 201.542 357.943 201.542ZM357.943 176.35C360.736 176.35 363 178.612 363 181.403C363 184.195 360.736 186.458 357.943 186.458C355.15 186.458 352.886 184.195 352.886 181.403C352.886 178.612 355.15 176.35 357.943 176.35ZM357.943 151.156C360.736 151.156 363 153.419 363 156.211C363 159.002 360.736 161.265 357.943 161.265C355.15 161.265 352.886 159.002 352.886 156.211C352.886 153.419 355.15 151.156 357.943 151.156ZM357.943 125.964C360.736 125.964 363 128.227 363 131.018C363 133.809 360.736 136.072 357.943 136.072C355.15 136.072 352.886 133.809 352.886 131.018C352.886 128.227 355.15 125.964 357.943 125.964ZM328.536 302.313C331.329 302.313 333.593 304.576 333.593 307.367C333.593 310.159 331.329 312.422 328.536 312.422C325.743 312.422 323.479 310.159 323.479 307.367C323.479 304.576 325.743 302.313 328.536 302.313ZM328.536 277.12C331.329 277.12 333.593 279.383 333.593 282.175C333.593 284.966 331.329 287.229 328.536 287.229C325.743 287.229 323.479 284.966 323.479 282.175C323.479 279.383 325.743 277.12 328.536 277.12ZM328.536 251.928C331.329 251.928 333.593 254.191 333.593 256.982C333.593 259.773 331.329 262.036 328.536 262.036C325.743 262.036 323.479 259.773 323.479 256.982C323.479 254.191 325.743 251.928 328.536 251.928ZM328.536 226.735C331.329 226.735 333.593 228.998 333.593 231.789C333.593 234.58 331.329 236.843 328.536 236.843C325.743 236.843 323.479 234.58 323.479 231.789C323.479 228.998 325.743 226.735 328.536 226.735ZM328.536 201.542C331.329 201.542 333.593 203.805 333.593 206.596C333.593 209.388 331.329 211.65 328.536 211.65C325.743 211.65 323.479 209.387 323.479 206.596C323.479 203.805 325.743 201.542 328.536 201.542ZM328.536 176.35C331.329 176.35 333.593 178.612 333.593 181.403C333.593 184.195 331.329 186.458 328.536 186.458C325.743 186.458 323.479 184.195 323.479 181.403C323.479 178.612 325.743 176.35 328.536 176.35ZM328.536 151.156C331.329 151.156 333.593 153.419 333.593 156.211C333.593 159.002 331.329 161.265 328.536 161.265C325.743 161.265 323.479 159.002 323.479 156.211C323.479 153.419 325.743 151.156 328.536 151.156ZM328.536 125.964C331.329 125.964 333.593 128.227 333.593 131.018C333.593 133.809 331.329 136.072 328.536 136.072C325.743 136.072 323.479 133.809 323.479 131.018C323.479 128.227 325.743 125.964 328.536 125.964ZM328.536 100.771C331.329 100.771 333.593 103.034 333.593 105.825C333.593 108.616 331.329 110.879 328.536 110.879C325.743 110.879 323.479 108.616 323.479 105.825C323.479 103.034 325.743 100.771 328.536 100.771ZM328.536 75.5779C331.329 75.5779 333.593 77.8409 333.593 80.6324C333.593 83.4236 331.329 85.6864 328.536 85.6864C325.743 85.6864 323.479 83.4233 323.479 80.6324C323.479 77.8409 325.743 75.5779 328.536 75.5779ZM299.129 327.506C301.922 327.506 304.186 329.769 304.186 332.56C304.186 335.352 301.922 337.614 299.129 337.614C296.336 337.614 294.072 335.352 294.072 332.56C294.072 329.769 296.336 327.506 299.129 327.506ZM299.129 302.313C301.922 302.313 304.186 304.576 304.186 307.367C304.186 310.159 301.922 312.422 299.129 312.422C296.336 312.422 294.072 310.159 294.072 307.367C294.072 304.576 296.336 302.313 299.129 302.313ZM299.129 277.12C301.922 277.12 304.186 279.383 304.186 282.175C304.186 284.966 301.922 287.229 299.129 287.229C296.336 287.229 294.072 284.966 294.072 282.175C294.072 279.383 296.336 277.12 299.129 277.12ZM299.129 251.928C301.922 251.928 304.186 254.191 304.186 256.982C304.186 259.773 301.922 262.036 299.129 262.036C296.336 262.036 294.072 259.773 294.072 256.982C294.072 254.191 296.336 251.928 299.129 251.928ZM299.129 226.735C301.922 226.735 304.186 228.998 304.186 231.789C304.186 234.58 301.922 236.843 299.129 236.843C296.336 236.843 294.072 234.58 294.072 231.789C294.072 228.998 296.336 226.735 299.129 226.735ZM299.129 201.542C301.922 201.542 304.186 203.805 304.186 206.596C304.186 209.388 301.922 211.65 299.129 211.65C296.336 211.65 294.072 209.387 294.072 206.596C294.072 203.805 296.336 201.542 299.129 201.542ZM299.129 176.35C301.922 176.35 304.186 178.612 304.186 181.403C304.186 184.195 301.922 186.458 299.129 186.458C296.336 186.458 294.072 184.195 294.072 181.403C294.072 178.612 296.336 176.35 299.129 176.35ZM299.129 151.156C301.922 151.156 304.186 153.419 304.186 156.211C304.186 159.002 301.922 161.265 299.129 161.265C296.336 161.265 294.072 159.002 294.072 156.211C294.072 153.419 296.336 151.156 299.129 151.156ZM299.129 125.964C301.922 125.964 304.186 128.227 304.186 131.018C304.186 133.809 301.922 136.072 299.129 136.072C296.336 136.072 294.072 133.809 294.072 131.018C294.072 128.227 296.336 125.964 299.129 125.964ZM299.129 100.771C301.922 100.771 304.186 103.034 304.186 105.825C304.186 108.616 301.922 110.879 299.129 110.879C296.336 110.879 294.072 108.616 294.072 105.825C294.072 103.034 296.336 100.771 299.129 100.771ZM299.129 75.5779C301.922 75.5779 304.186 77.8409 304.186 80.6324C304.186 83.4236 301.922 85.6864 299.129 85.6864C296.336 85.6864 294.072 83.4233 294.072 80.6324C294.072 77.8409 296.336 75.5779 299.129 75.5779ZM299.129 50.3856C301.922 50.3856 304.186 52.6484 304.186 55.4398C304.186 58.231 301.922 60.494 299.129 60.494C296.336 60.494 294.072 58.231 294.072 55.4398C294.072 52.6482 296.336 50.3856 299.129 50.3856ZM269.722 352.699C272.514 352.699 274.778 354.962 274.778 357.753C274.778 360.544 272.514 362.807 269.722 362.807C266.929 362.807 264.665 360.544 264.665 357.753C264.665 354.962 266.929 352.699 269.722 352.699ZM269.722 327.506C272.514 327.506 274.778 329.769 274.778 332.56C274.778 335.352 272.514 337.614 269.722 337.614C266.929 337.614 264.665 335.352 264.665 332.56C264.665 329.769 266.929 327.506 269.722 327.506ZM269.722 302.313C272.514 302.313 274.778 304.576 274.778 307.367C274.778 310.159 272.514 312.422 269.722 312.422C266.929 312.422 264.665 310.159 264.665 307.367C264.665 304.576 266.929 302.313 269.722 302.313ZM269.722 277.12C272.514 277.12 274.778 279.383 274.778 282.175C274.778 284.966 272.514 287.229 269.722 287.229C266.929 287.229 264.665 284.966 264.665 282.175C264.665 279.383 266.929 277.12 269.722 277.12ZM269.722 251.928C272.514 251.928 274.778 254.191 274.778 256.982C274.778 259.773 272.514 262.036 269.722 262.036C266.929 262.036 264.665 259.773 264.665 256.982C264.665 254.191 266.929 251.928 269.722 251.928ZM269.722 226.735C272.514 226.735 274.778 228.998 274.778 231.789C274.778 234.58 272.514 236.843 269.722 236.843C266.929 236.843 264.665 234.58 264.665 231.789C264.665 228.998 266.929 226.735 269.722 226.735ZM269.722 201.542C272.514 201.542 274.778 203.805 274.778 206.596C274.778 209.388 272.514 211.65 269.722 211.65C266.929 211.65 264.665 209.387 264.665 206.596C264.665 203.805 266.929 201.542 269.722 201.542ZM269.722 176.35C272.514 176.35 274.778 178.612 274.778 181.403C274.778 184.195 272.514 186.458 269.722 186.458C266.929 186.458 264.665 184.195 264.665 181.403C264.665 178.612 266.929 176.35 269.722 176.35ZM269.722 151.156C272.514 151.156 274.778 153.419 274.778 156.211C274.778 159.002 272.514 161.265 269.722 161.265C266.929 161.265 264.665 159.002 264.665 156.211C264.665 153.419 266.929 151.156 269.722 151.156ZM269.722 125.964C272.514 125.964 274.778 128.227 274.778 131.018C274.778 133.809 272.514 136.072 269.722 136.072C266.929 136.072 264.665 133.809 264.665 131.018C264.665 128.227 266.929 125.964 269.722 125.964ZM269.722 100.771C272.514 100.771 274.778 103.034 274.778 105.825C274.778 108.616 272.514 110.879 269.722 110.879C266.929 110.879 264.665 108.616 264.665 105.825C264.665 103.034 266.929 100.771 269.722 100.771ZM269.722 75.5779C272.514 75.5779 274.778 77.8409 274.778 80.6324C274.778 83.4236 272.514 85.6864 269.722 85.6864C266.929 85.6864 264.665 83.4233 264.665 80.6324C264.665 77.8409 266.929 75.5779 269.722 75.5779ZM269.722 50.3856C272.514 50.3856 274.778 52.6484 274.778 55.4398C274.778 58.231 272.514 60.494 269.722 60.494C266.929 60.494 264.665 58.231 264.665 55.4398C264.665 52.6482 266.929 50.3856 269.722 50.3856ZM269.722 25.1923C272.514 25.1923 274.778 27.4553 274.778 30.2465C274.778 33.038 272.514 35.301 269.722 35.301C266.929 35.301 264.665 33.038 264.665 30.2465C264.665 27.4553 266.929 25.1923 269.722 25.1923ZM240.314 352.699C243.107 352.699 245.371 354.962 245.371 357.753C245.371 360.544 243.107 362.807 240.314 362.807C237.522 362.807 235.257 360.544 235.257 357.753C235.257 354.962 237.522 352.699 240.314 352.699ZM240.314 327.506C243.107 327.506 245.371 329.769 245.371 332.56C245.371 335.352 243.107 337.614 240.314 337.614C237.522 337.614 235.257 335.352 235.257 332.56C235.257 329.769 237.522 327.506 240.314 327.506ZM240.314 302.313C243.107 302.313 245.371 304.576 245.371 307.367C245.371 310.159 243.107 312.422 240.314 312.422C237.522 312.422 235.257 310.159 235.257 307.367C235.257 304.576 237.522 302.313 240.314 302.313ZM240.314 277.12C243.107 277.12 245.371 279.383 245.371 282.175C245.371 284.966 243.107 287.229 240.314 287.229C237.522 287.229 235.257 284.966 235.257 282.175C235.257 279.383 237.522 277.12 240.314 277.12ZM240.314 251.928C243.107 251.928 245.371 254.191 245.371 256.982C245.371 259.773 243.107 262.036 240.314 262.036C237.522 262.036 235.257 259.773 235.257 256.982C235.257 254.191 237.522 251.928 240.314 251.928ZM240.314 226.735C243.107 226.735 245.371 228.998 245.371 231.789C245.371 234.58 243.107 236.843 240.314 236.843C237.522 236.843 235.257 234.58 235.257 231.789C235.257 228.998 237.522 226.735 240.314 226.735ZM240.314 201.542C243.107 201.542 245.371 203.805 245.371 206.596C245.371 209.388 243.107 211.65 240.314 211.65C237.522 211.65 235.257 209.387 235.257 206.596C235.257 203.805 237.522 201.542 240.314 201.542ZM240.314 176.35C243.107 176.35 245.371 178.612 245.371 181.403C245.371 184.195 243.107 186.458 240.314 186.458C237.522 186.458 235.257 184.195 235.257 181.403C235.257 178.612 237.522 176.35 240.314 176.35ZM240.314 151.156C243.107 151.156 245.371 153.419 245.371 156.211C245.371 159.002 243.107 161.265 240.314 161.265C237.522 161.265 235.257 159.002 235.257 156.211C235.257 153.419 237.522 151.156 240.314 151.156ZM240.314 125.964C243.107 125.964 245.371 128.227 245.371 131.018C245.371 133.809 243.107 136.072 240.314 136.072C237.522 136.072 235.257 133.809 235.257 131.018C235.257 128.227 237.522 125.964 240.314 125.964ZM240.314 100.771C243.107 100.771 245.371 103.034 245.371 105.825C245.371 108.616 243.107 110.879 240.314 110.879C237.522 110.879 235.257 108.616 235.257 105.825C235.257 103.034 237.522 100.771 240.314 100.771ZM240.314 75.5779C243.107 75.5779 245.371 77.8409 245.371 80.6324C245.371 83.4236 243.107 85.6864 240.314 85.6864C237.522 85.6864 235.257 83.4233 235.257 80.6324C235.257 77.8409 237.522 75.5779 240.314 75.5779ZM240.314 50.3856C243.107 50.3856 245.371 52.6484 245.371 55.4398C245.371 58.231 243.107 60.494 240.314 60.494C237.522 60.494 235.257 58.231 235.257 55.4398C235.257 52.6482 237.522 50.3856 240.314 50.3856ZM240.314 25.1923C243.107 25.1923 245.371 27.4553 245.371 30.2465C245.371 33.038 243.107 35.301 240.314 35.301C237.522 35.301 235.257 33.038 235.257 30.2465C235.257 27.4553 237.522 25.1923 240.314 25.1923ZM210.907 377.892C213.7 377.892 215.964 380.155 215.964 382.946C215.964 385.737 213.7 388 210.907 388C208.114 388 205.85 385.737 205.85 382.946C205.85 380.155 208.114 377.892 210.907 377.892ZM210.907 352.699C213.7 352.699 215.964 354.962 215.964 357.753C215.964 360.544 213.7 362.807 210.907 362.807C208.114 362.807 205.85 360.544 205.85 357.753C205.85 354.962 208.114 352.699 210.907 352.699ZM210.907 327.506C213.7 327.506 215.964 329.769 215.964 332.56C215.964 335.352 213.7 337.614 210.907 337.614C208.114 337.614 205.85 335.352 205.85 332.56C205.85 329.769 208.114 327.506 210.907 327.506ZM210.907 302.313C213.7 302.313 215.964 304.576 215.964 307.367C215.964 310.159 213.7 312.422 210.907 312.422C208.114 312.422 205.85 310.159 205.85 307.367C205.85 304.576 208.114 302.313 210.907 302.313ZM210.907 277.12C213.7 277.12 215.964 279.383 215.964 282.175C215.964 284.966 213.7 287.229 210.907 287.229C208.114 287.229 205.85 284.966 205.85 282.175C205.85 279.383 208.114 277.12 210.907 277.12ZM210.907 251.928C213.7 251.928 215.964 254.191 215.964 256.982C215.964 259.773 213.7 262.036 210.907 262.036C208.114 262.036 205.85 259.773 205.85 256.982C205.85 254.191 208.114 251.928 210.907 251.928ZM210.907 226.735C213.7 226.735 215.964 228.998 215.964 231.789C215.964 234.58 213.7 236.843 210.907 236.843C208.114 236.843 205.85 234.58 205.85 231.789C205.85 228.998 208.114 226.735 210.907 226.735ZM210.907 201.542C213.7 201.542 215.964 203.805 215.964 206.596C215.964 209.388 213.7 211.65 210.907 211.65C208.114 211.65 205.85 209.387 205.85 206.596C205.85 203.805 208.114 201.542 210.907 201.542ZM210.907 176.35C213.7 176.35 215.964 178.612 215.964 181.403C215.964 184.195 213.7 186.458 210.907 186.458C208.114 186.458 205.85 184.195 205.85 181.403C205.85 178.612 208.114 176.35 210.907 176.35ZM210.907 151.156C213.7 151.156 215.964 153.419 215.964 156.211C215.964 159.002 213.7 161.265 210.907 161.265C208.114 161.265 205.85 159.002 205.85 156.211C205.85 153.419 208.114 151.156 210.907 151.156ZM210.907 125.964C213.7 125.964 215.964 128.227 215.964 131.018C215.964 133.809 213.7 136.072 210.907 136.072C208.114 136.072 205.85 133.809 205.85 131.018C205.85 128.227 208.114 125.964 210.907 125.964ZM210.907 100.771C213.7 100.771 215.964 103.034 215.964 105.825C215.964 108.616 213.7 110.879 210.907 110.879C208.114 110.879 205.85 108.616 205.85 105.825C205.85 103.034 208.114 100.771 210.907 100.771ZM210.907 75.5779C213.7 75.5779 215.964 77.8409 215.964 80.6324C215.964 83.4236 213.7 85.6864 210.907 85.6864C208.114 85.6864 205.85 83.4233 205.85 80.6324C205.85 77.8409 208.114 75.5779 210.907 75.5779ZM210.907 50.3856C213.7 50.3856 215.964 52.6484 215.964 55.4398C215.964 58.231 213.7 60.494 210.907 60.494C208.114 60.494 205.85 58.231 205.85 55.4398C205.85 52.6482 208.114 50.3856 210.907 50.3856ZM210.907 25.1923C213.7 25.1923 215.964 27.4553 215.964 30.2465C215.964 33.038 213.7 35.301 210.907 35.301C208.114 35.301 205.85 33.038 205.85 30.2465C205.85 27.4553 208.114 25.1923 210.907 25.1923ZM210.907 0C213.7 0 215.964 2.26278 215.964 5.0542C215.964 7.84539 213.7 10.1084 210.907 10.1084C208.114 10.1084 205.85 7.84539 205.85 5.0542C205.85 2.26255 208.114 0 210.907 0ZM181.5 377.892C184.293 377.892 186.557 380.155 186.557 382.946C186.557 385.737 184.293 388 181.5 388C178.707 388 176.443 385.737 176.443 382.946C176.443 380.155 178.707 377.892 181.5 377.892ZM181.5 352.699C184.293 352.699 186.557 354.962 186.557 357.753C186.557 360.544 184.293 362.807 181.5 362.807C178.707 362.807 176.443 360.544 176.443 357.753C176.443 354.962 178.707 352.699 181.5 352.699ZM181.5 327.506C184.293 327.506 186.557 329.769 186.557 332.56C186.557 335.352 184.293 337.614 181.5 337.614C178.707 337.614 176.443 335.352 176.443 332.56C176.443 329.769 178.707 327.506 181.5 327.506ZM181.5 302.313C184.293 302.313 186.557 304.576 186.557 307.367C186.557 310.159 184.293 312.422 181.5 312.422C178.707 312.422 176.443 310.159 176.443 307.367C176.443 304.576 178.707 302.313 181.5 302.313ZM181.5 277.12C184.293 277.12 186.557 279.383 186.557 282.175C186.557 284.966 184.293 287.229 181.5 287.229C178.707 287.229 176.443 284.966 176.443 282.175C176.443 279.383 178.707 277.12 181.5 277.12ZM181.5 251.928C184.293 251.928 186.557 254.191 186.557 256.982C186.557 259.773 184.293 262.036 181.5 262.036C178.707 262.036 176.443 259.773 176.443 256.982C176.443 254.191 178.707 251.928 181.5 251.928ZM181.5 226.735C184.293 226.735 186.557 228.998 186.557 231.789C186.557 234.58 184.293 236.843 181.5 236.843C178.707 236.843 176.443 234.58 176.443 231.789C176.443 228.998 178.707 226.735 181.5 226.735ZM181.5 201.542C184.293 201.542 186.557 203.805 186.557 206.596C186.557 209.388 184.293 211.65 181.5 211.65C178.707 211.65 176.443 209.387 176.443 206.596C176.443 203.805 178.707 201.542 181.5 201.542ZM181.5 176.35C184.293 176.35 186.557 178.612 186.557 181.403C186.557 184.195 184.293 186.458 181.5 186.458C178.707 186.458 176.443 184.195 176.443 181.403C176.443 178.612 178.707 176.35 181.5 176.35ZM181.5 151.156C184.293 151.156 186.557 153.419 186.557 156.211C186.557 159.002 184.293 161.265 181.5 161.265C178.707 161.265 176.443 159.002 176.443 156.211C176.443 153.419 178.707 151.156 181.5 151.156ZM181.5 125.964C184.293 125.964 186.557 128.227 186.557 131.018C186.557 133.809 184.293 136.072 181.5 136.072C178.707 136.072 176.443 133.809 176.443 131.018C176.443 128.227 178.707 125.964 181.5 125.964ZM181.5 100.771C184.293 100.771 186.557 103.034 186.557 105.825C186.557 108.616 184.293 110.879 181.5 110.879C178.707 110.879 176.443 108.616 176.443 105.825C176.443 103.034 178.707 100.771 181.5 100.771ZM181.5 75.5779C184.293 75.5779 186.557 77.8409 186.557 80.6324C186.557 83.4236 184.293 85.6864 181.5 85.6864C178.707 85.6864 176.443 83.4233 176.443 80.6324C176.443 77.8409 178.707 75.5779 181.5 75.5779ZM181.5 50.3856C184.293 50.3856 186.557 52.6484 186.557 55.4398C186.557 58.231 184.293 60.494 181.5 60.494C178.707 60.494 176.443 58.231 176.443 55.4398C176.443 52.6482 178.707 50.3856 181.5 50.3856ZM181.5 25.1923C184.293 25.1923 186.557 27.4553 186.557 30.2465C186.557 33.038 184.293 35.301 181.5 35.301C178.707 35.301 176.443 33.038 176.443 30.2465C176.443 27.4553 178.707 25.1923 181.5 25.1923ZM181.5 0C184.293 0 186.557 2.26278 186.557 5.0542C186.557 7.84539 184.293 10.1084 181.5 10.1084C178.707 10.1084 176.443 7.84539 176.443 5.0542C176.443 2.26255 178.707 0 181.5 0ZM152.093 377.892C154.886 377.892 157.15 380.155 157.15 382.946C157.15 385.737 154.886 388 152.093 388C149.3 388 147.036 385.737 147.036 382.946C147.036 380.155 149.3 377.892 152.093 377.892ZM152.093 352.699C154.886 352.699 157.15 354.962 157.15 357.753C157.15 360.544 154.886 362.807 152.093 362.807C149.3 362.807 147.036 360.544 147.036 357.753C147.036 354.962 149.3 352.699 152.093 352.699ZM152.093 327.506C154.886 327.506 157.15 329.769 157.15 332.56C157.15 335.352 154.886 337.614 152.093 337.614C149.3 337.614 147.036 335.352 147.036 332.56C147.036 329.769 149.3 327.506 152.093 327.506ZM152.093 302.313C154.886 302.313 157.15 304.576 157.15 307.367C157.15 310.159 154.886 312.422 152.093 312.422C149.3 312.422 147.036 310.159 147.036 307.367C147.036 304.576 149.3 302.313 152.093 302.313ZM152.093 277.12C154.886 277.12 157.15 279.383 157.15 282.175C157.15 284.966 154.886 287.229 152.093 287.229C149.3 287.229 147.036 284.966 147.036 282.175C147.036 279.383 149.3 277.12 152.093 277.12ZM152.093 251.928C154.886 251.928 157.15 254.191 157.15 256.982C157.15 259.773 154.886 262.036 152.093 262.036C149.3 262.036 147.036 259.773 147.036 256.982C147.036 254.191 149.3 251.928 152.093 251.928ZM152.093 226.735C154.886 226.735 157.15 228.998 157.15 231.789C157.15 234.58 154.886 236.843 152.093 236.843C149.3 236.843 147.036 234.58 147.036 231.789C147.036 228.998 149.3 226.735 152.093 226.735ZM152.093 201.542C154.886 201.542 157.15 203.805 157.15 206.596C157.15 209.388 154.886 211.65 152.093 211.65C149.3 211.65 147.036 209.387 147.036 206.596C147.036 203.805 149.3 201.542 152.093 201.542ZM152.093 176.35C154.886 176.35 157.15 178.612 157.15 181.403C157.15 184.195 154.886 186.458 152.093 186.458C149.3 186.458 147.036 184.195 147.036 181.403C147.036 178.612 149.3 176.35 152.093 176.35ZM152.093 151.156C154.886 151.156 157.15 153.419 157.15 156.211C157.15 159.002 154.886 161.265 152.093 161.265C149.3 161.265 147.036 159.002 147.036 156.211C147.036 153.419 149.3 151.156 152.093 151.156ZM152.093 125.964C154.886 125.964 157.15 128.227 157.15 131.018C157.15 133.809 154.886 136.072 152.093 136.072C149.3 136.072 147.036 133.809 147.036 131.018C147.036 128.227 149.3 125.964 152.093 125.964ZM152.093 100.771C154.886 100.771 157.15 103.034 157.15 105.825C157.15 108.616 154.886 110.879 152.093 110.879C149.3 110.879 147.036 108.616 147.036 105.825C147.036 103.034 149.3 100.771 152.093 100.771ZM152.093 75.5779C154.886 75.5779 157.15 77.8409 157.15 80.6324C157.15 83.4236 154.886 85.6864 152.093 85.6864C149.3 85.6864 147.036 83.4233 147.036 80.6324C147.036 77.8409 149.3 75.5779 152.093 75.5779ZM152.093 50.3856C154.886 50.3856 157.15 52.6484 157.15 55.4398C157.15 58.231 154.886 60.494 152.093 60.494C149.3 60.494 147.036 58.231 147.036 55.4398C147.036 52.6482 149.3 50.3856 152.093 50.3856ZM152.093 25.1923C154.886 25.1923 157.15 27.4553 157.15 30.2465C157.15 33.038 154.886 35.301 152.093 35.301C149.3 35.301 147.036 33.038 147.036 30.2465C147.036 27.4553 149.3 25.1923 152.093 25.1923ZM152.093 0C154.886 0 157.15 2.26278 157.15 5.0542C157.15 7.84539 154.886 10.1084 152.093 10.1084C149.3 10.1084 147.036 7.84539 147.036 5.0542C147.036 2.26255 149.3 0 152.093 0ZM122.686 352.699C125.478 352.699 127.743 354.962 127.743 357.753C127.743 360.544 125.478 362.807 122.686 362.807C119.893 362.807 117.629 360.544 117.629 357.753C117.629 354.962 119.893 352.699 122.686 352.699ZM122.686 327.506C125.478 327.506 127.743 329.769 127.743 332.56C127.743 335.352 125.478 337.614 122.686 337.614C119.893 337.614 117.629 335.352 117.629 332.56C117.629 329.769 119.893 327.506 122.686 327.506ZM122.686 302.313C125.478 302.313 127.743 304.576 127.743 307.367C127.743 310.159 125.478 312.422 122.686 312.422C119.893 312.422 117.629 310.159 117.629 307.367C117.629 304.576 119.893 302.313 122.686 302.313ZM122.686 277.12C125.478 277.12 127.743 279.383 127.743 282.175C127.743 284.966 125.478 287.229 122.686 287.229C119.893 287.229 117.629 284.966 117.629 282.175C117.629 279.383 119.893 277.12 122.686 277.12ZM122.686 251.928C125.478 251.928 127.743 254.191 127.743 256.982C127.743 259.773 125.478 262.036 122.686 262.036C119.893 262.036 117.629 259.773 117.629 256.982C117.629 254.191 119.893 251.928 122.686 251.928ZM122.686 226.735C125.478 226.735 127.743 228.998 127.743 231.789C127.743 234.58 125.478 236.843 122.686 236.843C119.893 236.843 117.629 234.58 117.629 231.789C117.629 228.998 119.893 226.735 122.686 226.735ZM122.686 201.542C125.478 201.542 127.743 203.805 127.743 206.596C127.743 209.388 125.478 211.65 122.686 211.65C119.893 211.65 117.629 209.387 117.629 206.596C117.629 203.805 119.893 201.542 122.686 201.542ZM122.686 176.35C125.478 176.35 127.743 178.612 127.743 181.403C127.743 184.195 125.478 186.458 122.686 186.458C119.893 186.458 117.629 184.195 117.629 181.403C117.629 178.612 119.893 176.35 122.686 176.35ZM122.686 151.156C125.478 151.156 127.743 153.419 127.743 156.211C127.743 159.002 125.478 161.265 122.686 161.265C119.893 161.265 117.629 159.002 117.629 156.211C117.629 153.419 119.893 151.156 122.686 151.156ZM122.686 125.964C125.478 125.964 127.743 128.227 127.743 131.018C127.743 133.809 125.478 136.072 122.686 136.072C119.893 136.072 117.629 133.809 117.629 131.018C117.629 128.227 119.893 125.964 122.686 125.964ZM122.686 100.771C125.478 100.771 127.743 103.034 127.743 105.825C127.743 108.616 125.478 110.879 122.686 110.879C119.893 110.879 117.629 108.616 117.629 105.825C117.629 103.034 119.893 100.771 122.686 100.771ZM122.686 75.5779C125.478 75.5779 127.743 77.8409 127.743 80.6324C127.743 83.4236 125.478 85.6864 122.686 85.6864C119.893 85.6864 117.629 83.4233 117.629 80.6324C117.629 77.8409 119.893 75.5779 122.686 75.5779ZM122.686 50.3856C125.478 50.3856 127.743 52.6484 127.743 55.4398C127.743 58.231 125.478 60.494 122.686 60.494C119.893 60.494 117.629 58.231 117.629 55.4398C117.629 52.6482 119.893 50.3856 122.686 50.3856ZM122.686 25.1923C125.478 25.1923 127.743 27.4553 127.743 30.2465C127.743 33.038 125.478 35.301 122.686 35.301C119.893 35.301 117.629 33.038 117.629 30.2465C117.629 27.4553 119.893 25.1923 122.686 25.1923ZM93.2787 352.699C96.0716 352.699 98.3356 354.962 98.3356 357.753C98.3356 360.544 96.0716 362.807 93.2787 362.807C90.4858 362.807 88.2219 360.544 88.2219 357.753C88.2219 354.962 90.4856 352.699 93.2787 352.699ZM93.2787 327.506C96.0716 327.506 98.3356 329.769 98.3356 332.56C98.3356 335.352 96.0716 337.614 93.2787 337.614C90.4858 337.614 88.2219 335.352 88.2219 332.56C88.2219 329.769 90.4856 327.506 93.2787 327.506ZM93.2787 302.313C96.0716 302.313 98.3356 304.576 98.3356 307.367C98.3356 310.159 96.0716 312.422 93.2787 312.422C90.4858 312.422 88.2219 310.159 88.2219 307.367C88.2219 304.576 90.4856 302.313 93.2787 302.313ZM93.2787 277.12C96.0716 277.12 98.3356 279.383 98.3356 282.175C98.3356 284.966 96.0716 287.229 93.2787 287.229C90.4858 287.229 88.2219 284.966 88.2219 282.175C88.2219 279.383 90.4856 277.12 93.2787 277.12ZM93.2787 251.928C96.0716 251.928 98.3356 254.191 98.3356 256.982C98.3356 259.773 96.0716 262.036 93.2787 262.036C90.4858 262.036 88.2219 259.773 88.2219 256.982C88.2219 254.191 90.4856 251.928 93.2787 251.928ZM93.2787 226.735C96.0716 226.735 98.3356 228.998 98.3356 231.789C98.3356 234.58 96.0716 236.843 93.2787 236.843C90.4858 236.843 88.2219 234.58 88.2219 231.789C88.2219 228.998 90.4856 226.735 93.2787 226.735ZM93.2787 201.542C96.0716 201.542 98.3356 203.805 98.3356 206.596C98.3356 209.388 96.0716 211.65 93.2787 211.65C90.4858 211.65 88.2219 209.387 88.2219 206.596C88.2219 203.805 90.4856 201.542 93.2787 201.542ZM93.2787 176.35C96.0716 176.35 98.3356 178.612 98.3356 181.403C98.3356 184.195 96.0716 186.458 93.2787 186.458C90.4858 186.458 88.2219 184.195 88.2219 181.403C88.2219 178.612 90.4856 176.35 93.2787 176.35ZM93.2787 151.156C96.0716 151.156 98.3356 153.419 98.3356 156.211C98.3356 159.002 96.0716 161.265 93.2787 161.265C90.4858 161.265 88.2219 159.002 88.2219 156.211C88.2219 153.419 90.4856 151.156 93.2787 151.156ZM93.2787 125.964C96.0716 125.964 98.3356 128.227 98.3356 131.018C98.3356 133.809 96.0716 136.072 93.2787 136.072C90.4858 136.072 88.2219 133.809 88.2219 131.018C88.2219 128.227 90.4856 125.964 93.2787 125.964ZM93.2787 100.771C96.0716 100.771 98.3356 103.034 98.3356 105.825C98.3356 108.616 96.0716 110.879 93.2787 110.879C90.4858 110.879 88.2219 108.616 88.2219 105.825C88.2219 103.034 90.4856 100.771 93.2787 100.771ZM93.2787 75.5779C96.0716 75.5779 98.3356 77.8409 98.3356 80.6324C98.3356 83.4236 96.0716 85.6864 93.2787 85.6864C90.4858 85.6864 88.2219 83.4233 88.2219 80.6324C88.2219 77.8409 90.4856 75.5779 93.2787 75.5779ZM93.2787 50.3856C96.0716 50.3856 98.3356 52.6484 98.3356 55.4398C98.3356 58.231 96.0716 60.494 93.2787 60.494C90.4858 60.494 88.2219 58.231 88.2219 55.4398C88.2219 52.6482 90.4856 50.3856 93.2787 50.3856ZM93.2787 25.1923C96.0716 25.1923 98.3356 27.4553 98.3356 30.2465C98.3356 33.038 96.0716 35.301 93.2787 35.301C90.4858 35.301 88.2219 33.038 88.2219 30.2465C88.2219 27.4553 90.4856 25.1923 93.2787 25.1923ZM63.8714 327.506C66.6643 327.506 68.9283 329.769 68.9283 332.56C68.9283 335.352 66.6643 337.614 63.8714 337.614C61.0785 337.614 58.8146 335.352 58.8146 332.56C58.8146 329.769 61.0785 327.506 63.8714 327.506ZM63.8714 302.313C66.6643 302.313 68.9283 304.576 68.9283 307.367C68.9283 310.159 66.6643 312.422 63.8714 312.422C61.0785 312.422 58.8146 310.159 58.8146 307.367C58.8146 304.576 61.0785 302.313 63.8714 302.313ZM63.8714 277.12C66.6643 277.12 68.9283 279.383 68.9283 282.175C68.9283 284.966 66.6643 287.229 63.8714 287.229C61.0785 287.229 58.8146 284.966 58.8146 282.175C58.8146 279.383 61.0785 277.12 63.8714 277.12ZM63.8714 251.928C66.6643 251.928 68.9283 254.191 68.9283 256.982C68.9283 259.773 66.6643 262.036 63.8714 262.036C61.0785 262.036 58.8146 259.773 58.8146 256.982C58.8146 254.191 61.0785 251.928 63.8714 251.928ZM63.8714 226.735C66.6643 226.735 68.9283 228.998 68.9283 231.789C68.9283 234.58 66.6643 236.843 63.8714 236.843C61.0785 236.843 58.8146 234.58 58.8146 231.789C58.8146 228.998 61.0785 226.735 63.8714 226.735ZM63.8714 201.542C66.6643 201.542 68.9283 203.805 68.9283 206.596C68.9283 209.388 66.6643 211.65 63.8714 211.65C61.0785 211.65 58.8146 209.387 58.8146 206.596C58.8146 203.805 61.0785 201.542 63.8714 201.542ZM63.8714 176.35C66.6643 176.35 68.9283 178.612 68.9283 181.403C68.9283 184.195 66.6643 186.458 63.8714 186.458C61.0785 186.458 58.8146 184.195 58.8146 181.403C58.8146 178.612 61.0785 176.35 63.8714 176.35ZM63.8714 151.156C66.6643 151.156 68.9283 153.419 68.9283 156.211C68.9283 159.002 66.6643 161.265 63.8714 161.265C61.0785 161.265 58.8146 159.002 58.8146 156.211C58.8146 153.419 61.0785 151.156 63.8714 151.156ZM63.8714 125.964C66.6643 125.964 68.9283 128.227 68.9283 131.018C68.9283 133.809 66.6643 136.072 63.8714 136.072C61.0785 136.072 58.8146 133.809 58.8146 131.018C58.8146 128.227 61.0785 125.964 63.8714 125.964ZM63.8714 100.771C66.6643 100.771 68.9283 103.034 68.9283 105.825C68.9283 108.616 66.6643 110.879 63.8714 110.879C61.0785 110.879 58.8146 108.616 58.8146 105.825C58.8146 103.034 61.0785 100.771 63.8714 100.771ZM63.8714 75.5779C66.6643 75.5779 68.9283 77.8409 68.9283 80.6324C68.9283 83.4236 66.6643 85.6864 63.8714 85.6864C61.0785 85.6864 58.8146 83.4233 58.8146 80.6324C58.8146 77.8409 61.0785 75.5779 63.8714 75.5779ZM63.8714 50.3856C66.6643 50.3856 68.9283 52.6484 68.9283 55.4398C68.9283 58.231 66.6643 60.494 63.8714 60.494C61.0785 60.494 58.8146 58.231 58.8146 55.4398C58.8146 52.6482 61.0785 50.3856 63.8714 50.3856ZM34.4641 302.313C37.257 302.313 39.5212 304.576 39.5212 307.367C39.5212 310.159 37.257 312.422 34.4641 312.422C31.6715 312.422 29.4073 310.159 29.4073 307.367C29.4073 304.576 31.6715 302.313 34.4641 302.313ZM34.4641 277.12C37.257 277.12 39.5212 279.383 39.5212 282.175C39.5212 284.966 37.257 287.229 34.4641 287.229C31.6715 287.229 29.4073 284.966 29.4073 282.175C29.4073 279.383 31.6715 277.12 34.4641 277.12ZM34.4641 251.928C37.257 251.928 39.5212 254.191 39.5212 256.982C39.5212 259.773 37.257 262.036 34.4641 262.036C31.6715 262.036 29.4073 259.773 29.4073 256.982C29.4073 254.191 31.6715 251.928 34.4641 251.928ZM34.4641 226.735C37.257 226.735 39.5212 228.998 39.5212 231.789C39.5212 234.58 37.257 236.843 34.4641 236.843C31.6715 236.843 29.4073 234.58 29.4073 231.789C29.4073 228.998 31.6715 226.735 34.4641 226.735ZM34.4641 201.542C37.257 201.542 39.5212 203.805 39.5212 206.596C39.5212 209.388 37.257 211.65 34.4641 211.65C31.6715 211.65 29.4073 209.387 29.4073 206.596C29.4073 203.805 31.6715 201.542 34.4641 201.542ZM34.4641 176.35C37.257 176.35 39.5212 178.612 39.5212 181.403C39.5212 184.195 37.257 186.458 34.4641 186.458C31.6715 186.458 29.4073 184.195 29.4073 181.403C29.4073 178.612 31.6715 176.35 34.4641 176.35ZM34.4641 151.156C37.257 151.156 39.5212 153.419 39.5212 156.211C39.5212 159.002 37.257 161.265 34.4641 161.265C31.6715 161.265 29.4073 159.002 29.4073 156.211C29.4073 153.419 31.6715 151.156 34.4641 151.156ZM34.4641 125.964C37.257 125.964 39.5212 128.227 39.5212 131.018C39.5212 133.809 37.257 136.072 34.4641 136.072C31.6715 136.072 29.4073 133.809 29.4073 131.018C29.4073 128.227 31.6715 125.964 34.4641 125.964ZM34.4641 100.771C37.257 100.771 39.5212 103.034 39.5212 105.825C39.5212 108.616 37.257 110.879 34.4641 110.879C31.6715 110.879 29.4073 108.616 29.4073 105.825C29.4073 103.034 31.6715 100.771 34.4641 100.771ZM34.4641 75.5779C37.257 75.5779 39.5212 77.8409 39.5212 80.6324C39.5212 83.4236 37.257 85.6864 34.4641 85.6864C31.6715 85.6864 29.4073 83.4233 29.4073 80.6324C29.4073 77.8409 31.6715 75.5779 34.4641 75.5779ZM5.05707 251.928C7.84972 251.928 10.1139 254.191 10.1139 256.982C10.1139 259.773 7.84972 262.036 5.05707 262.036C2.26419 262.036 0 259.773 0 256.982C0 254.191 2.26419 251.928 5.05707 251.928ZM5.05707 226.735C7.84972 226.735 10.1139 228.998 10.1139 231.789C10.1139 234.58 7.84972 236.843 5.05707 236.843C2.26419 236.843 0 234.58 0 231.789C0 228.998 2.26419 226.735 5.05707 226.735ZM5.05707 201.542C7.84972 201.542 10.1139 203.805 10.1139 206.596C10.1139 209.388 7.84972 211.65 5.05707 211.65C2.26419 211.65 0 209.387 0 206.596C0 203.805 2.26419 201.542 5.05707 201.542ZM5.05707 176.35C7.84972 176.35 10.1139 178.612 10.1139 181.403C10.1139 184.195 7.84972 186.458 5.05707 186.458C2.26419 186.458 0 184.195 0 181.403C0 178.612 2.26419 176.35 5.05707 176.35ZM5.05707 151.156C7.84972 151.156 10.1139 153.419 10.1139 156.211C10.1139 159.002 7.84972 161.265 5.05707 161.265C2.26419 161.265 0 159.002 0 156.211C0 153.419 2.26419 151.156 5.05707 151.156ZM5.05707 125.964C7.84972 125.964 10.1139 128.227 10.1139 131.018C10.1139 133.809 7.84972 136.072 5.05707 136.072C2.26419 136.072 0 133.809 0 131.018C0 128.227 2.26419 125.964 5.05707 125.964Z" fill="#6BCD49"/>
</svg>
