<svg width="151" height="31" viewBox="0 0 151 31" fill="none" xmlns="http://www.w3.org/2000/svg">
<path d="M78.1579 14.8056C76.9182 14.8056 76.0246 15.2207 75.1184 15.6436V25.2129C75.9864 25.2973 76.4839 25.2973 77.3073 25.2973C80.2828 25.2973 80.6907 23.9058 80.6907 21.963V17.3927C80.6907 15.9579 80.2244 14.8056 78.1579 14.8056ZM58.3967 14.2833C56.3322 14.2833 55.8611 15.4406 55.8611 16.874V17.6793H60.9296V16.874C60.9296 15.4406 60.4584 14.2833 58.3967 14.2833ZM20.1154 24.2436C20.1154 25.3775 20.6394 25.9664 21.7957 25.9664C23.036 25.9664 23.7705 25.5535 24.676 25.1292V22.8592H21.9638C20.6797 22.8592 20.1154 23.1033 20.1154 24.2436ZM97.3805 14.8056C95.3125 14.8056 94.5961 15.9579 94.5961 17.3927V22.6286C94.5961 24.0669 95.3125 25.2228 97.3805 25.2228C99.4429 25.2228 100.165 24.0669 100.165 22.6286V17.3927C100.164 15.9579 99.4422 14.8056 97.3805 14.8056ZM9.9812 30.1146H3.90234V15.0901H0.86499V9.91305H3.90303V6.8037C3.90303 2.5796 5.61731 0.0684204 10.4899 0.0684204H14.5466V5.24689H12.011C10.1139 5.24689 9.98884 5.97066 9.98884 7.32098L9.9812 9.91234H14.5744L14.0372 15.0894H9.9812V30.1146ZM30.7562 30.1536H25.6898L25.4709 28.8452C23.1576 30.1536 21.0931 30.3658 19.7311 30.3658C16.0156 30.3658 14.0379 27.8312 14.0379 24.3259C14.0379 20.1905 16.3457 18.7146 20.474 18.7146H24.676V17.8205C24.676 15.7096 24.439 15.0901 21.2599 15.0901H16.0621L16.5701 9.91305H22.2515C29.2268 9.91305 30.7562 12.1631 30.7562 17.8624V30.1536ZM47.9845 15.4697C44.8318 14.9177 43.9264 14.7963 42.4094 14.7963C39.6848 14.7963 38.8614 15.4101 38.8614 17.773V22.2426C38.8614 24.6055 39.6848 25.2221 42.4094 25.2221C43.9264 25.2221 44.8318 25.0986 47.9845 24.5445V29.5945C45.223 30.2267 43.424 30.3928 41.9036 30.3928C35.3772 30.3928 32.7832 26.8882 32.7832 21.8254V18.1987C32.7832 13.1317 35.3772 9.6207 41.9036 9.6207C43.424 9.6207 45.223 9.78745 47.9845 10.4225V15.4697ZM67.0077 21.8254H55.8604V22.2426C55.8604 24.6055 56.6845 25.2221 59.4084 25.2221C61.8572 25.2221 63.3519 25.0986 66.4991 24.5445V29.5945C63.4638 30.2267 61.8822 30.3928 58.9047 30.3928C52.3776 30.3928 49.7822 26.8882 49.7822 21.8254V17.6786C49.7822 13.2488 51.7077 9.6207 58.396 9.6207C65.0843 9.6207 67.0077 13.2069 67.0077 17.6786V21.8254ZM86.7682 21.9212C86.7682 26.8144 85.3986 30.3835 77.1016 30.3835C74.1053 30.3835 72.3479 30.1146 69.041 29.5952V1.62381L75.1177 0.588539V10.3729C76.4311 9.87473 78.1308 9.62141 79.6776 9.62141C85.7551 9.62141 86.7675 12.4037 86.7675 16.8747V21.9212H86.7682ZM106.248 22.0276C106.248 26.2489 104.541 30.3431 97.4007 30.3431C90.2565 30.3431 88.5179 26.2489 88.5179 22.0276V17.9518C88.5179 13.7284 90.2565 9.63348 97.4007 9.63348C104.541 9.63348 106.248 13.7284 106.248 17.9518V22.0276ZM125.714 22.0276C125.714 26.2489 124.006 30.3431 116.867 30.3431C109.722 30.3431 107.984 26.2489 107.984 22.0276V17.9518C107.984 13.7284 109.722 9.63348 116.867 9.63348C124.006 9.63348 125.714 13.7284 125.714 17.9518V22.0276ZM145.692 30.1146H139.105L133.534 20.6184V30.1146H127.455V1.6231L133.534 0.587829V18.9296L139.105 9.91305H145.692L139.61 19.7527L145.692 30.1146ZM116.846 14.8056C114.781 14.8056 114.065 15.9579 114.065 17.3927V22.6286C114.065 24.0669 114.781 25.2228 116.846 25.2228C118.907 25.2228 119.637 24.0669 119.637 22.6286V17.3927C119.637 15.9579 118.907 14.8056 116.846 14.8056ZM149.161 26.571C150.185 26.571 151 27.4232 151 28.4876C151 29.5682 150.184 30.4112 149.154 30.4112C148.128 30.4112 147.296 29.5682 147.296 28.4876C147.296 27.4232 148.128 26.571 149.154 26.571H149.161ZM149.154 26.869C148.329 26.869 147.654 27.5935 147.654 28.4876C147.654 29.3979 148.33 30.1132 149.161 30.1132C149.994 30.1217 150.659 29.3979 150.659 28.4961C150.659 27.5942 149.994 26.869 149.161 26.869H149.154ZM148.804 29.603H148.471V27.4644C148.646 27.4395 148.812 27.4147 149.063 27.4147C149.38 27.4147 149.587 27.4828 149.714 27.5758C149.837 27.6701 149.903 27.8142 149.903 28.0178C149.903 28.3002 149.721 28.4698 149.496 28.5387V28.555C149.679 28.5897 149.803 28.7586 149.846 29.073C149.894 29.4058 149.945 29.5328 149.978 29.6023H149.628C149.579 29.5328 149.528 29.3376 149.487 29.0559C149.438 28.7842 149.303 28.682 149.036 28.682H148.805V29.603H148.804ZM148.804 28.4194H149.046C149.32 28.4194 149.553 28.3166 149.553 28.0519C149.553 27.8646 149.421 27.6779 149.046 27.6779C148.937 27.6779 148.861 27.6865 148.804 27.6943V28.4194Z" fill="#A2BDAA"/>
</svg>
