<svg width="105" height="34" viewBox="0 0 105 34" fill="none" xmlns="http://www.w3.org/2000/svg">
<path fill-rule="evenodd" clip-rule="evenodd" d="M12.8927 0.586243H13.8221C17.0491 0.65421 20.2233 1.90998 22.5031 4.13308C21.6613 4.96466 20.8021 5.76227 19.9778 6.59365C18.6977 5.47381 17.1543 4.60824 15.4706 4.30279C12.9805 3.79365 10.2972 4.25182 8.21033 5.62653C5.93049 7.06881 4.38712 9.5126 4.0539 12.1259C3.68577 14.7054 4.43979 17.4207 6.17591 19.4231C7.84199 21.3747 10.385 22.5965 13.0154 22.6814C15.4706 22.8172 18.0312 22.0873 19.82 20.4244C21.2229 19.2533 21.8718 17.4716 22.0823 15.7407C19.1711 15.7407 16.26 15.7575 13.3486 15.7407V12.2448H25.6072C26.2385 15.9952 25.3267 20.2207 22.3804 22.9019C20.4162 24.8026 17.698 25.9226 14.9271 26.1433C12.2438 26.3978 9.47295 25.9056 7.08797 24.6499C4.22929 23.1736 1.94945 20.6788 0.827092 17.7431C-0.225028 15.0448 -0.242588 11.9902 0.739502 9.27492C1.63379 6.79735 3.35256 4.60824 5.56215 3.081C7.68416 1.57055 10.2621 0.738967 12.8927 0.586243Z" fill="#A2BDAA"/>
<path fill-rule="evenodd" clip-rule="evenodd" d="M83.2175 1.46881H86.9704V25.7021C85.7252 25.7021 84.4625 25.7189 83.2175 25.6852C83.2348 17.6244 83.2175 9.54659 83.2175 1.46881Z" fill="#A2BDAA"/>
<path fill-rule="evenodd" clip-rule="evenodd" d="M33.9551 9.86906C36.2701 9.44467 38.778 9.91983 40.6895 11.2606C42.4256 12.4484 43.6358 14.3152 44.0041 16.3516C44.4776 18.7105 43.8812 21.2898 42.3029 23.1566C40.6019 25.2438 37.8135 26.3638 35.095 26.1941C32.6047 26.0584 30.1846 24.8536 28.7115 22.885C27.0456 20.7129 26.6421 17.7261 27.554 15.1806C28.466 12.4484 31.044 10.3612 33.9551 9.86906ZM34.4813 13.0933C33.5343 13.3309 32.6574 13.8569 32.0261 14.6037C30.3249 16.5721 30.4302 19.7795 32.3066 21.6122C33.3765 22.6645 34.9899 23.1566 36.4806 22.868C37.8659 22.6305 39.0761 21.7312 39.7425 20.5431C40.9 18.5237 40.5668 15.7407 38.7955 14.1625C37.6556 13.1442 35.9895 12.72 34.4813 13.0933Z" fill="#A2BDAA"/>
<path fill-rule="evenodd" clip-rule="evenodd" d="M52.5447 9.86903C55.1929 9.37688 58.0865 10.0895 60.0682 11.8884C63.2952 14.6884 63.6458 19.9322 60.8925 23.1566C59.2264 25.193 56.5257 26.313 53.86 26.1941C51.3172 26.1263 48.8093 24.9045 47.301 22.8849C45.6 20.6619 45.2317 17.6074 46.1962 15.0109C47.1608 12.3636 49.6862 10.3442 52.5447 9.86903ZM53.0709 13.0932C52.1239 13.3309 51.2469 13.8568 50.6156 14.5867C48.9322 16.5213 49.0022 19.6777 50.8086 21.5274C51.8783 22.6305 53.5443 23.1736 55.0877 22.868C56.4555 22.6135 57.6832 21.7311 58.3496 20.5431C59.4896 18.5067 59.1563 15.7237 57.3676 14.1455C56.2276 13.1272 54.5616 12.72 53.0709 13.0932Z" fill="#A2BDAA"/>
<path fill-rule="evenodd" clip-rule="evenodd" d="M68.3106 10.8531C70.3275 9.63134 73.0106 9.29191 75.1852 10.3442C75.8692 10.6326 76.4303 11.1248 76.974 11.617L76.9916 10.2085L80.5341 10.2252V25.193C80.5165 27.4499 79.9203 29.8427 78.2367 31.4889C76.3952 33.3046 73.5718 33.8647 71.0288 33.4913C68.3106 33.1011 65.943 31.1834 64.8909 28.7566C65.943 28.2645 67.048 27.8743 68.1352 27.4161C68.749 28.8076 69.9943 29.9954 71.555 30.2671C73.1157 30.5385 74.9221 30.1651 75.9393 28.9093C77.0265 27.6196 77.0265 25.8549 76.974 24.2766C76.1673 25.0403 75.2377 25.7189 74.1154 25.9736C71.6777 26.6355 68.9946 25.8209 67.118 24.2257C65.2241 22.6305 64.1017 20.1699 64.2069 17.7261C64.2595 14.9599 65.873 12.2956 68.3106 10.8531ZM71.9409 13.0255C70.871 13.1952 69.8713 13.7721 69.1873 14.5697C67.539 16.4703 67.539 19.508 69.2049 21.3747C70.1521 22.4777 71.6777 23.0886 73.1508 22.9359C74.5364 22.8002 75.8166 21.9516 76.5005 20.7808C77.658 18.7952 77.4651 16.0969 75.9041 14.366C74.9396 13.2969 73.3965 12.7708 71.9409 13.0255Z" fill="#A2BDAA"/>
<path fill-rule="evenodd" clip-rule="evenodd" d="M91.4772 11.7188C93.5817 9.8181 96.826 9.17322 99.5269 10.1745C102.087 11.1079 103.718 13.4667 104.543 15.8935C100.737 17.4207 96.9488 18.931 93.1433 20.4584C93.6695 21.4257 94.4762 22.3081 95.5634 22.6645C97.0892 23.1904 98.9129 23.0039 100.193 22.0196C100.702 21.6462 101.105 21.1541 101.491 20.6789L104.385 22.5456C103.017 24.5312 100.719 25.9227 98.2467 26.1434C95.5107 26.4658 92.5996 25.4475 90.8284 23.3772C87.9172 20.119 88.1977 14.6545 91.4772 11.7188ZM93.3538 14.8582C92.7574 15.6898 92.512 16.7079 92.5296 17.7092C95.0724 16.6911 97.6152 15.6728 100.158 14.6377C99.7372 13.6874 98.7202 13.1103 97.6854 12.9575C96.0193 12.6691 94.2832 13.5345 93.3538 14.8582Z" fill="#A2BDAA"/>
</svg>
