<svg width="332" height="303" viewBox="0 0 332 303" fill="none" xmlns="http://www.w3.org/2000/svg">
<path d="M8.6434 110.016C10.6166 107.713 12.6859 105.424 14.795 103.214L15.3709 102.61L14.163 101.458L13.5871 102.062C11.458 104.294 9.36867 106.605 7.37698 108.93L6.83327 109.563L8.10043 110.649L8.6434 110.016ZM21.2975 96.751C23.5383 94.6425 25.842 92.5935 28.1454 90.6632L28.785 90.127L27.7128 88.8484L27.0738 89.3844C24.7461 91.3355 22.4182 93.4051 20.1545 95.5365L19.546 96.1082L20.6898 97.323L21.2975 96.751ZM124.839 153.276L125.631 153.536L126.153 151.951L125.361 151.691C123.825 151.185 122.34 150.467 120.948 149.557C120.947 149.556 120.946 149.555 120.944 149.554C119.885 148.862 118.857 148.044 117.89 147.124L117.285 146.548L116.135 147.757L116.739 148.332C117.779 149.322 118.887 150.203 120.031 150.951C120.032 150.952 120.033 150.953 120.035 150.954C121.548 151.942 123.165 152.724 124.839 153.276ZM112.979 140.804L112.655 140.035C111.593 137.508 111.492 134.657 112.354 131.561L112.578 130.758L110.97 130.311L110.747 131.115C109.781 134.581 109.906 137.8 111.117 140.682L111.441 141.451L112.979 140.804ZM134.295 154.089C137.273 153.694 140.297 152.724 143.286 151.207L144.03 150.829L143.274 149.341L142.53 149.718C139.71 151.15 136.865 152.063 134.076 152.434L133.249 152.545L133.469 154.199L134.295 154.089ZM35.3411 85.0011C37.8367 83.1635 40.3768 81.425 42.891 79.8326L43.5956 79.3862L42.7027 77.9764L41.9981 78.4228C39.4514 80.0363 36.8784 81.7967 34.3518 83.658L33.6802 84.1526L34.669 85.496L35.3411 85.0011ZM116.401 123.693C118.077 121.441 120.16 119.243 122.592 117.16L123.226 116.617L122.141 115.349L121.507 115.892C118.98 118.056 116.812 120.345 115.062 122.697L114.564 123.366L115.902 124.362L116.401 123.693ZM151.039 145.907C153.355 143.877 155.488 141.557 157.377 139.011L157.875 138.341L156.535 137.347L156.038 138.016C154.219 140.467 152.167 142.699 149.939 144.652L149.311 145.202L150.411 146.457L151.039 145.907ZM50.7917 75.2376C53.5228 73.7918 56.2972 72.4712 59.0369 71.312L59.8047 70.987L59.1549 69.45L58.3864 69.7752C55.6023 70.9525 52.7842 72.2936 50.011 73.7626L49.2733 74.1529L50.0545 75.6278L50.7917 75.2376ZM129.947 111.868C132.468 110.341 135.185 108.941 138.025 107.708L138.79 107.375L138.126 105.845L137.361 106.177C134.452 107.441 131.666 108.876 129.083 110.443L128.369 110.875L129.234 112.302L129.947 111.868ZM161.807 131.715L162.154 130.957C162.668 129.835 163.135 128.69 163.544 127.555C164.198 125.739 164.696 123.876 165.028 122.021L165.174 121.199L163.532 120.906L163.386 121.727C163.071 123.491 162.596 125.262 161.975 126.989C161.583 128.082 161.132 129.183 160.638 130.261L160.291 131.02L161.807 131.715ZM67.5971 68.1643C70.5232 67.2481 73.4921 66.4868 76.4208 65.9006L77.239 65.7375L76.9117 64.1014L76.0938 64.2656C73.1077 64.8623 70.081 65.6388 67.0979 66.5724L66.3022 66.8216L66.8002 68.4138L67.5971 68.1643ZM146.578 104.603C149.447 103.75 152.429 103.043 155.441 102.503L156.262 102.356L155.967 100.713L155.146 100.86C152.074 101.412 149.031 102.132 146.103 103.003L145.303 103.241L145.779 104.84L146.578 104.603ZM85.4344 64.6234C88.4581 64.3701 91.5169 64.2938 94.5264 64.3977L95.3606 64.4267L95.4188 62.7594L94.5846 62.7305C91.5087 62.6242 88.3835 62.702 85.2947 62.9607L84.4637 63.0305L84.6033 64.6932L85.4344 64.6234ZM165.432 113.45L165.341 112.62C165.008 109.58 164.249 106.513 163.088 103.503L162.787 102.725L161.231 103.326L161.531 104.105C162.641 106.979 163.365 109.906 163.683 112.803L163.774 113.632L165.432 113.45ZM103.588 65.2462C106.583 65.6968 109.592 66.3007 112.531 67.0421L113.34 67.2461L113.747 65.6274L112.938 65.4237C109.947 64.6694 106.885 64.055 103.836 63.5955L103.011 63.4718L102.763 65.122L103.588 65.2462ZM164.484 101.372C167.477 101.155 170.544 101.088 173.599 101.171L174.433 101.194L174.478 99.5258L173.644 99.5027C170.535 99.4177 167.412 99.4862 164.363 99.707L163.531 99.7676L163.651 101.431L164.484 101.372ZM159.232 95.8897L158.774 95.1924C157.125 92.6837 155.176 90.2207 152.978 87.8722L152.408 87.2633L151.19 88.4031L151.76 89.0128C153.892 91.2917 155.783 93.6791 157.379 96.1085L157.837 96.8057L159.232 95.8897ZM121.256 69.703C124.131 70.7375 126.961 71.9203 129.669 73.2192L130.422 73.5807L131.143 72.0765L130.391 71.7156C127.632 70.3921 124.749 69.1868 121.82 68.1338L121.036 67.8513L120.47 69.4209L121.256 69.703ZM146.788 82.0729L146.138 81.5498C143.781 79.6526 141.222 77.8404 138.544 76.1786L137.836 75.7379L136.955 77.1551L137.663 77.5952C140.289 79.2275 142.788 80.9948 145.092 82.85L145.742 83.3731L146.788 82.0729ZM182.678 101.887C185.619 102.299 188.616 102.914 191.587 103.716L192.393 103.934L192.828 102.323L192.023 102.105C188.984 101.285 185.918 100.655 182.909 100.235L182.082 100.119L181.852 101.772L182.678 101.887ZM252.806 144.214L252.257 143.587C250.232 141.28 248.12 138.993 245.981 136.792L245.4 136.193L244.203 137.356L244.785 137.954C246.905 140.136 248.997 142.401 251.002 144.687L251.553 145.314L252.806 144.214ZM239.975 130.894L239.363 130.328C237.074 128.207 234.731 126.156 232.401 124.232L231.757 123.701L230.695 124.987L231.338 125.518C233.645 127.422 235.963 129.452 238.228 131.551L238.841 132.118L239.975 130.894ZM200.234 106.585C202.986 107.667 205.784 108.928 208.551 110.335L209.295 110.713L210.051 109.226L209.307 108.848C206.494 107.417 203.646 106.132 200.844 105.032L200.067 104.727L199.457 106.279L200.234 106.585ZM225.756 119.052L225.08 118.564C222.543 116.727 219.994 115.015 217.386 113.402L216.677 112.963L215.799 114.382L216.508 114.821C219.084 116.415 221.598 118.104 224.102 119.916L224.778 120.405L225.756 119.052Z" fill="#3F9896"/>
<path d="M259.784 184.46L272.371 182.651C272.371 182.651 306.761 206.29 307.392 206.447C308.022 206.604 331.17 212.395 331.17 212.395L311.863 193.739L274.535 169.952L259.784 184.46Z" fill="#3F9896"/>
<path d="M280.991 147.22L331.17 212.393L274.536 169.951L280.991 147.22Z" fill="#7FC6A6"/>
<path d="M272.371 182.65L265.378 206.751L331.17 212.393L272.371 182.65Z" fill="#7FC6A6"/>
</svg>
