<svg width="414" height="136" viewBox="0 0 414 136" fill="none" xmlns="http://www.w3.org/2000/svg">
<path d="M2.4637 133.835L0 129.364L66.008 73.9344L149.849 116.127L259.679 41.3038L332.588 64.5943L410.747 0L414 3.9359L333.691 70.3075L260.496 46.9249L150.24 122.04L66.1156 79.7049L2.4637 133.835Z" fill="#D1CF8E"/>
<path d="M163.65 119.623C163.353 127.138 157.02 132.988 149.505 132.69C141.991 132.392 136.14 126.059 136.439 118.544C136.736 111.03 143.069 105.179 150.584 105.478C158.098 105.776 163.948 112.109 163.65 119.623Z" fill="white"/>
<path d="M149.404 135.241C140.495 134.888 133.534 127.352 133.887 118.443C134.24 109.534 141.775 102.573 150.684 102.926C159.593 103.279 166.554 110.815 166.201 119.724C165.848 128.633 158.313 135.593 149.404 135.241ZM150.482 108.029C144.387 107.787 139.231 112.55 138.989 118.646C138.747 124.741 143.51 129.897 149.606 130.138C155.702 130.38 160.858 125.618 161.099 119.522C161.341 113.426 156.578 108.27 150.482 108.029Z" fill="#D1CF8E"/>
<path d="M259.206 61.0982C250.297 60.7448 243.337 53.2096 243.69 44.3006C244.042 35.3913 251.578 28.4305 260.487 28.7834C269.396 29.1367 276.356 36.672 276.004 45.5809C275.651 54.4903 268.116 61.4506 259.206 61.0982ZM260.284 33.8864C254.19 33.6441 249.033 38.4071 248.792 44.5029C248.55 50.5982 253.313 55.7546 259.409 55.9956C265.504 56.2374 270.66 51.4748 270.902 45.3795C271.143 39.2833 266.381 34.1274 260.284 33.8864Z" fill="#D1CF8E"/>
<path d="M79.2813 78.5606C78.9844 86.0748 72.6511 91.9249 65.1364 91.6266C57.6222 91.3297 51.7722 84.9964 52.07 77.4817C52.3673 69.9675 58.7007 64.117 66.2153 64.4153C73.7295 64.7126 79.5791 71.046 79.2813 78.5606Z" fill="white"/>
<path d="M65.0354 94.1782C56.1264 93.8253 49.1657 86.29 49.519 77.3806C49.8719 68.4717 57.4071 61.5109 66.3165 61.8642C75.2254 62.2171 82.1862 69.7524 81.8333 78.6613C81.4796 87.5707 73.9447 94.5315 65.0354 94.1782ZM66.1134 66.9663C60.018 66.7253 54.8621 71.4875 54.6207 77.5833C54.3793 83.6791 59.1419 88.835 65.2376 89.0764C71.333 89.3183 76.4894 84.5553 76.7308 78.459C76.9722 72.3637 72.2096 67.2078 66.1134 66.9663Z" fill="#D1CF8E"/>
<path d="M331.891 83.0155C322.983 82.6622 316.022 75.1273 316.375 66.218C316.728 57.309 324.263 50.3483 333.172 50.7011C342.081 51.054 349.042 58.5893 348.689 67.4987C348.336 76.4076 340.801 83.3684 331.891 83.0155ZM332.97 55.8033C326.875 55.5614 321.718 60.324 321.477 66.4203C321.235 72.5156 325.998 77.6711 332.094 77.913C338.19 78.1544 343.345 73.3918 343.587 67.2964C343.828 61.2006 339.066 56.0447 332.97 55.8033Z" fill="#D1CF8E"/>
</svg>
