<svg width="107" height="33" viewBox="0 0 107 33" fill="none" xmlns="http://www.w3.org/2000/svg">
<g clip-path="url(#clip0_225_526)">
<path d="M0.443726 23.3294V0.53115H4.36249V23.3293H0.443726V23.3295V23.3294ZM14.3943 6.79009C9.36956 6.79009 5.89258 10.738 5.89258 15.2568C5.89258 20.2998 9.6753 23.7742 14.4333 23.7742C18.949 23.7742 22.8676 20.364 22.8676 15.2459C22.8676 10.9421 19.6204 6.79016 14.3943 6.79016V6.79009ZM14.3481 10.6535C16.9777 10.6535 18.913 12.7451 18.913 15.2712C18.913 17.9498 16.779 19.9035 14.4189 19.9035C11.6304 19.9035 9.87529 17.6449 9.87529 15.2785C9.87536 12.6847 11.8568 10.6535 14.3481 10.6535V10.6535ZM32.7138 6.79009C27.6893 6.79009 24.2122 10.738 24.2122 15.2568C24.2122 20.2998 27.9949 23.7742 32.7529 23.7742C37.2686 23.7742 41.1871 20.364 41.1871 15.2459C41.1871 12.232 39.9099 10.8948 39.9099 10.8948L40.9962 10.5141V7.26387H35.4302C35.4302 7.26387 34.2234 6.79009 32.7138 6.79009ZM32.6677 10.6535C35.2972 10.6535 37.2327 12.7451 37.2327 15.2712C37.2327 17.9498 35.0987 19.9035 32.7387 19.9035C29.95 19.9035 28.195 17.6449 28.195 15.2785C28.1951 12.6847 30.1766 10.6535 32.6677 10.6535V10.6535ZM37.205 24.4439C37.205 27.1222 35.0711 29.0907 32.711 29.0907C29.9223 29.0907 28.1602 26.8101 28.1602 24.4439H24.1845C24.1845 29.487 27.9671 32.9612 32.7253 32.9612C37.2409 32.9612 41.1595 29.5617 41.1595 24.4439H37.205ZM42.7568 23.3294V7.26387H46.6758V23.3294H42.7568ZM50.4811 23.3294V10.8624H48.3797V7.26387H50.4811V2.33044H54.4001V7.26387H56.5583V10.8624H54.4001V23.3294H50.4811ZM47.3033 2.70098C47.3033 4.16558 46.1413 5.35293 44.7082 5.35293C43.2748 5.35293 42.113 4.1655 42.113 2.70098C42.113 1.2363 43.2749 0.0489502 44.7082 0.0489502C46.1414 0.0489502 47.3033 1.2363 47.3033 2.70098ZM65.3689 6.77926C60.3204 6.77926 57.066 10.7291 57.066 15.4019C57.066 20.2307 60.3314 23.7851 65.4506 23.7851C70.2259 23.7851 72.5749 20.7378 72.5749 20.7378L69.9552 18.057C69.9552 18.057 67.9771 20.2373 65.5002 20.2373C63.4354 20.2373 61.7845 19.0595 61.2084 16.9H73.4197V15.7973C73.4198 11.397 70.9276 6.77926 65.3689 6.77926ZM65.2447 10.3052C67.05 10.3052 68.8962 11.2922 69.3092 13.6498H61.102C61.427 11.9925 62.8459 10.3052 65.2447 10.3052ZM83.2221 23.7872C78.1595 23.7872 74.7099 19.8467 74.7099 15.2009C74.7099 10.4062 78.6085 6.77626 83.2058 6.77626C87.6501 6.77626 89.9252 9.98234 89.9252 9.98234L87.1912 12.7634C87.1912 12.7634 85.6076 10.6725 83.1872 10.6725C80.5047 10.6725 78.6704 12.7696 78.6704 15.2623C78.6704 17.8943 80.6215 19.9138 83.157 19.9138C85.6164 19.9138 87.1874 17.8263 87.1874 17.8263L89.9486 20.6058C89.9486 20.6058 87.6958 23.7873 83.2222 23.7873H83.2221V23.7872V23.7872ZM91.3745 23.341V0.473198H95.2933V8.87496C95.2933 8.87496 96.7939 6.77626 100.058 6.77626C104.162 6.77626 106.539 9.89351 106.539 13.8805V23.341H102.62V14.4857C102.62 11.8072 100.988 10.6959 99.1805 10.6959C97.1208 10.6959 95.2935 11.8938 95.2935 14.6929V23.341H91.3745Z" fill="#A2BDAA"/>
</g>
<defs>
<clipPath id="clip0_225_526">
<rect width="106.095" height="32.9161" fill="white" transform="translate(0.443726 0.0456543)"/>
</clipPath>
</defs>
</svg>
