<svg width="30" height="30" viewBox="0 0 30 30" fill="none" xmlns="http://www.w3.org/2000/svg">
<g id="Iconly/Light-Outline/Show">
<g id="Group 662">
<g id="Group 658">
<g id="Group 659">
<g id="Show">
<path id="Fill 1" fill-rule="evenodd" clip-rule="evenodd" d="M14.9995 12.0515C13.337 12.0515 11.9857 13.404 11.9857 15.0665C11.9857 16.7278 13.337 18.079 14.9995 18.079C16.662 18.079 18.0145 16.7278 18.0145 15.0665C18.0145 13.404 16.662 12.0515 14.9995 12.0515ZM14.9995 19.954C12.3032 19.954 10.1107 17.7615 10.1107 15.0665C10.1107 12.3703 12.3032 10.1765 14.9995 10.1765C17.6957 10.1765 19.8895 12.3703 19.8895 15.0665C19.8895 17.7615 17.6957 19.954 14.9995 19.954Z" fill="#A3B938"/>
<g id="Group 5">
<g id="Group 660">
<path id="Fill 3" fill-rule="evenodd" clip-rule="evenodd" d="M4.46237 15.0657C6.78737 20.2019 10.7036 23.2557 14.9999 23.2569C19.2961 23.2557 23.2124 20.2019 25.5374 15.0657C23.2124 9.93069 19.2961 6.87694 14.9999 6.87569C10.7049 6.87694 6.78737 9.93069 4.46237 15.0657ZM15.0024 25.1319H14.9974H14.9961C9.82612 25.1282 5.18362 21.5044 2.57612 15.4357C2.47487 15.1994 2.47487 14.9319 2.57612 14.6957C5.18362 8.62819 9.82737 5.00444 14.9961 5.00069C14.9986 4.99944 14.9986 4.99944 14.9999 5.00069C15.0024 4.99944 15.0024 4.99944 15.0036 5.00069C20.1736 5.00444 24.8161 8.62819 27.4236 14.6957C27.5261 14.9319 27.5261 15.1994 27.4236 15.4357C24.8174 21.5044 20.1736 25.1282 15.0036 25.1319H15.0024Z" fill="#A3B938"/>
</g>
</g>
</g>
</g>
</g>
</g>
</g>
</svg>
