<svg width="209" height="28" viewBox="0 0 209 28" fill="none" xmlns="http://www.w3.org/2000/svg">
<path d="M1.40066 27.2196C1.15785 27.2196 0.939316 27.1346 0.745066 26.9647C0.575097 26.7947 0.490112 26.5762 0.490112 26.3091V9.19078C0.490112 8.92369 0.575097 8.70516 0.745066 8.53519C0.939316 8.36522 1.15785 8.28023 1.40066 8.28023H4.7879C5.05499 8.28023 5.27352 8.36522 5.44349 8.53519C5.61346 8.70516 5.69844 8.92369 5.69844 9.19078V10.4291C6.20835 9.74925 6.88823 9.1665 7.73807 8.68088C8.6122 8.19525 9.64415 7.9403 10.8339 7.91602C13.6263 7.86745 15.5566 8.93583 16.625 11.1211C17.1835 10.1742 17.9848 9.40931 19.0289 8.82656C20.073 8.21953 21.2263 7.91602 22.4889 7.91602C23.7516 7.91602 24.8928 8.20739 25.9126 8.79014C26.9324 9.34861 27.7458 10.2227 28.3529 11.4125C28.9599 12.578 29.2634 14.0835 29.2634 15.9288V26.3091C29.2634 26.5762 29.1663 26.7947 28.972 26.9647C28.8021 27.1346 28.5957 27.2196 28.3529 27.2196H24.7471C24.48 27.2196 24.2615 27.1346 24.0915 26.9647C23.9215 26.7947 23.8365 26.5762 23.8365 26.3091V16.2202C23.8365 15.2247 23.6909 14.4477 23.3995 13.8892C23.1324 13.3307 22.756 12.9301 22.2704 12.6873C21.8091 12.4202 21.287 12.2866 20.7043 12.2866C20.1944 12.2866 19.6966 12.4202 19.211 12.6873C18.7496 12.9301 18.3611 13.3307 18.0455 13.8892C17.7541 14.4477 17.6084 15.2247 17.6084 16.2202V26.3091C17.6084 26.5762 17.5234 26.7947 17.3534 26.9647C17.1835 27.1346 16.9771 27.2196 16.7343 27.2196H13.1285C12.8614 27.2196 12.6429 27.1346 12.4729 26.9647C12.3029 26.7947 12.218 26.5762 12.218 26.3091V16.2202C12.218 15.2247 12.0723 14.4477 11.7809 13.8892C11.4895 13.3307 11.101 12.9301 10.6154 12.6873C10.1541 12.4202 9.64415 12.2866 9.08568 12.2866C8.57577 12.2866 8.07801 12.4202 7.59238 12.6873C7.13104 12.9301 6.74254 13.3307 6.42688 13.8892C6.13551 14.4477 5.98982 15.2125 5.98982 16.1838V26.3091C5.98982 26.5762 5.90483 26.7947 5.73487 26.9647C5.5649 27.1346 5.34636 27.2196 5.07927 27.2196H1.40066Z" fill="white"/>
<path d="M39.9416 27.5838C38.6547 27.5838 37.5013 27.341 36.4815 26.8554C35.4617 26.3455 34.6483 25.6656 34.0412 24.8158C33.4342 23.9659 33.1307 23.019 33.1307 21.9749C33.1307 20.2509 33.8227 18.8911 35.2067 17.8956C36.615 16.9001 38.4604 16.2202 40.7429 15.856L45.5141 15.164V14.5084C45.5141 13.5614 45.2956 12.833 44.8585 12.3231C44.4215 11.8132 43.6566 11.5582 42.5639 11.5582C41.7627 11.5582 41.1192 11.716 40.6336 12.0317C40.1722 12.3473 39.808 12.7601 39.5409 13.27C39.3467 13.5857 39.0553 13.7435 38.6668 13.7435H35.2067C34.9396 13.7435 34.7332 13.6707 34.5876 13.525C34.4419 13.355 34.3812 13.1608 34.4054 12.9422C34.4054 12.5295 34.5633 12.0438 34.8789 11.4854C35.1946 10.9269 35.6802 10.3806 36.3358 9.84638C36.9914 9.28791 37.8291 8.82656 38.8489 8.46234C39.893 8.09812 41.1435 7.91602 42.6004 7.91602C44.1301 7.91602 45.4413 8.09812 46.5339 8.46234C47.6266 8.82656 48.5007 9.33647 49.1563 9.99206C49.8362 10.6477 50.3218 11.4125 50.6132 12.2866C50.9288 13.1365 51.0867 14.0592 51.0867 15.0547V26.3091C51.0867 26.5762 51.0017 26.7947 50.8317 26.9647C50.6617 27.1346 50.4554 27.2196 50.2125 27.2196H46.6068C46.364 27.2196 46.1576 27.1346 45.9876 26.9647C45.8176 26.7947 45.7327 26.5762 45.7327 26.3091V24.9615C45.417 25.4228 44.9921 25.8599 44.4579 26.2727C43.9237 26.6612 43.2802 26.9768 42.5275 27.2196C41.7991 27.4624 40.9371 27.5838 39.9416 27.5838ZM41.3984 23.796C42.1997 23.796 42.916 23.626 43.5473 23.2861C44.1787 22.9461 44.6764 22.4241 45.0406 21.7199C45.4049 21.0158 45.587 20.1295 45.587 19.0611V18.4419L42.1997 18.9883C40.9128 19.2068 39.9659 19.5346 39.3588 19.9717C38.7518 20.4087 38.4483 20.9429 38.4483 21.5742C38.4483 22.0356 38.5818 22.4362 38.8489 22.7761C39.1403 23.0918 39.5045 23.3468 39.9416 23.541C40.4029 23.711 40.8885 23.796 41.3984 23.796Z" fill="white"/>
<path d="M57.0991 27.2196C56.8563 27.2196 56.6378 27.1346 56.4435 26.9647C56.2736 26.7947 56.1886 26.5762 56.1886 26.3091V9.19078C56.1886 8.94797 56.2736 8.74158 56.4435 8.57161C56.6378 8.37736 56.8563 8.28023 57.0991 8.28023H60.6685C60.9356 8.28023 61.1541 8.37736 61.3241 8.57161C61.494 8.74158 61.579 8.94797 61.579 9.19078V10.6477C62.1861 9.89494 62.9388 9.31219 63.8372 8.89941C64.7356 8.48662 65.7554 8.28023 66.8966 8.28023H68.4628C68.7299 8.28023 68.9484 8.36522 69.1183 8.53519C69.2883 8.70516 69.3733 8.92369 69.3733 9.19078V12.3595C69.3733 12.6023 69.2883 12.8087 69.1183 12.9787C68.9484 13.1486 68.7299 13.2336 68.4628 13.2336H65.2941C64.2014 13.2336 63.3516 13.5371 62.7445 14.1442C62.1618 14.7512 61.8704 15.5889 61.8704 16.6573V26.3091C61.8704 26.5762 61.7733 26.7947 61.579 26.9647C61.409 27.1346 61.2027 27.2196 60.9599 27.2196H57.0991Z" fill="white"/>
<path d="M73.7274 27.2196C73.4603 27.2196 73.2418 27.1346 73.0718 26.9647C72.9019 26.7947 72.8169 26.5762 72.8169 26.3091V2.27062C72.8169 2.00353 72.9019 1.785 73.0718 1.61503C73.2418 1.44506 73.4603 1.36007 73.7274 1.36007H77.2968C77.5396 1.36007 77.746 1.44506 77.9159 1.61503C78.1102 1.785 78.2073 2.00353 78.2073 2.27062V14.5812L83.7799 8.89941C83.9741 8.72944 84.1441 8.58375 84.2898 8.46234C84.4597 8.34094 84.7147 8.28023 85.0546 8.28023H89.2067C89.4253 8.28023 89.6074 8.36522 89.7531 8.53519C89.923 8.68087 90.008 8.86298 90.008 9.08152C90.008 9.17864 89.9837 9.28791 89.9352 9.40931C89.8866 9.53072 89.8016 9.62784 89.6802 9.70069L82.6508 16.7665L90.5908 25.8356C90.785 26.0298 90.8821 26.2241 90.8821 26.4183C90.8821 26.6369 90.8093 26.8311 90.6636 27.0011C90.5179 27.1468 90.3237 27.2196 90.0809 27.2196H85.8559C85.4917 27.2196 85.2246 27.1589 85.0546 27.0375C84.909 26.9161 84.739 26.7704 84.5447 26.6005L78.2073 19.4618V26.3091C78.2073 26.5762 78.1102 26.7947 77.9159 26.9647C77.746 27.1346 77.5396 27.2196 77.2968 27.2196H73.7274Z" fill="white"/>
<path d="M101.807 27.5838C99.0144 27.5838 96.7926 26.8068 95.1415 25.2528C93.5147 23.6988 92.6527 21.4407 92.5556 18.4784C92.5556 18.2841 92.5556 18.0292 92.5556 17.7135C92.5556 17.3736 92.5556 17.1186 92.5556 16.9486C92.6527 15.0547 93.0776 13.44 93.8303 12.1045C94.583 10.7448 95.6393 9.71283 96.999 9.00867C98.3588 8.28023 99.9492 7.91602 101.77 7.91602C103.834 7.91602 105.546 8.34094 106.906 9.19078C108.266 10.0163 109.285 11.1576 109.965 12.6144C110.669 14.047 111.021 15.6982 111.021 17.5678V18.4055C111.021 18.6483 110.936 18.8669 110.767 19.0611C110.597 19.2311 110.378 19.3161 110.111 19.3161H98.2374C98.2374 19.3161 98.2374 19.3525 98.2374 19.4253C98.2374 19.4739 98.2374 19.5225 98.2374 19.571C98.2617 20.348 98.4073 21.0643 98.6744 21.7199C98.9415 22.3512 99.33 22.8611 99.8399 23.2496C100.374 23.6381 101.018 23.8324 101.77 23.8324C102.353 23.8324 102.839 23.7474 103.227 23.5774C103.616 23.3832 103.931 23.1768 104.174 22.9583C104.441 22.7154 104.635 22.5091 104.757 22.3391C104.975 22.072 105.145 21.9142 105.267 21.8656C105.412 21.7928 105.619 21.7563 105.886 21.7563H109.747C109.965 21.7563 110.147 21.8292 110.293 21.9749C110.463 22.1206 110.536 22.3027 110.512 22.5212C110.487 22.934 110.281 23.4317 109.892 24.0145C109.528 24.573 108.982 25.1314 108.253 25.6899C107.525 26.2241 106.614 26.6733 105.522 27.0375C104.453 27.4017 103.215 27.5838 101.807 27.5838ZM98.2374 15.9653H105.34V15.856C105.34 15.0061 105.194 14.2656 104.903 13.6343C104.635 12.9787 104.235 12.4688 103.701 12.1045C103.166 11.7403 102.523 11.5582 101.77 11.5582C101.018 11.5582 100.374 11.7403 99.8399 12.1045C99.33 12.4688 98.9294 12.9787 98.638 13.6343C98.3709 14.2656 98.2374 15.0061 98.2374 15.856V15.9653Z" fill="white"/>
<path d="M124.461 27.2196C122.955 27.2196 121.668 26.9768 120.6 26.4912C119.556 25.9813 118.754 25.2043 118.196 24.1602C117.638 23.1161 117.358 21.8049 117.358 20.2266V12.578H114.517C114.25 12.578 114.032 12.493 113.862 12.3231C113.692 12.1531 113.607 11.9467 113.607 11.7039V9.19078C113.607 8.92369 113.692 8.70516 113.862 8.53519C114.032 8.36522 114.25 8.28023 114.517 8.28023H117.358V2.27062C117.358 2.00353 117.443 1.785 117.613 1.61503C117.807 1.44506 118.026 1.36007 118.269 1.36007H121.875C122.117 1.36007 122.324 1.44506 122.494 1.61503C122.664 1.785 122.749 2.00353 122.749 2.27062V8.28023H127.301C127.569 8.28023 127.787 8.36522 127.957 8.53519C128.127 8.70516 128.212 8.92369 128.212 9.19078V11.7039C128.212 11.9467 128.127 12.1531 127.957 12.3231C127.787 12.493 127.569 12.578 127.301 12.578H122.749V19.7896C122.749 20.7122 122.919 21.4407 123.259 21.9749C123.599 22.4848 124.169 22.7397 124.97 22.7397H127.629C127.896 22.7397 128.115 22.8247 128.285 22.9947C128.455 23.1646 128.54 23.371 128.54 23.6139V26.3091C128.54 26.5762 128.455 26.7947 128.285 26.9647C128.115 27.1346 127.896 27.2196 127.629 27.2196H124.461Z" fill="white"/>
<path d="M133.32 27.2196C133.053 27.2196 132.834 27.1346 132.664 26.9647C132.494 26.7947 132.409 26.5762 132.409 26.3091V2.27062C132.409 2.00353 132.494 1.785 132.664 1.61503C132.834 1.44506 133.053 1.36007 133.32 1.36007H137.253C137.521 1.36007 137.739 1.44506 137.909 1.61503C138.079 1.785 138.164 2.00353 138.164 2.27062V10.4655C138.795 9.68855 139.584 9.06938 140.531 8.60803C141.503 8.14669 142.656 7.91602 143.992 7.91602C145.424 7.91602 146.687 8.24381 147.779 8.89941C148.896 9.53072 149.758 10.4655 150.365 11.7039C150.997 12.918 151.312 14.3991 151.312 16.1474V26.3091C151.312 26.5762 151.227 26.7947 151.057 26.9647C150.887 27.1346 150.669 27.2196 150.402 27.2196H146.432C146.189 27.2196 145.983 27.1346 145.813 26.9647C145.643 26.7947 145.558 26.5762 145.558 26.3091V16.3659C145.558 15.079 145.242 14.0835 144.611 13.3793C143.979 12.6509 143.081 12.2866 141.915 12.2866C140.774 12.2866 139.864 12.6509 139.184 13.3793C138.504 14.0835 138.164 15.079 138.164 16.3659V26.3091C138.164 26.5762 138.079 26.7947 137.909 26.9647C137.739 27.1346 137.521 27.2196 137.253 27.2196H133.32Z" fill="white"/>
<path d="M157.274 27.2196C157.031 27.2196 156.812 27.1346 156.618 26.9647C156.448 26.7947 156.363 26.5762 156.363 26.3091V9.19078C156.363 8.92369 156.448 8.70516 156.618 8.53519C156.812 8.36522 157.031 8.28023 157.274 8.28023H160.952C161.195 8.28023 161.401 8.36522 161.571 8.53519C161.741 8.70516 161.826 8.92369 161.826 9.19078V26.3091C161.826 26.5762 161.741 26.7947 161.571 26.9647C161.401 27.1346 161.195 27.2196 160.952 27.2196H157.274ZM157.164 5.36648C156.921 5.36648 156.715 5.2815 156.545 5.11153C156.375 4.94156 156.29 4.72303 156.29 4.45594V1.50576C156.29 1.26295 156.375 1.05656 156.545 0.886588C156.715 0.692339 156.921 0.595215 157.164 0.595215H161.025C161.268 0.595215 161.474 0.692339 161.644 0.886588C161.838 1.05656 161.936 1.26295 161.936 1.50576V4.45594C161.936 4.72303 161.838 4.94156 161.644 5.11153C161.474 5.2815 161.268 5.36648 161.025 5.36648H157.164Z" fill="white"/>
<path d="M168.032 27.2196C167.789 27.2196 167.571 27.1346 167.377 26.9647C167.207 26.7947 167.122 26.5762 167.122 26.3091V9.19078C167.122 8.92369 167.207 8.70516 167.377 8.53519C167.571 8.36522 167.789 8.28023 168.032 8.28023H171.602C171.869 8.28023 172.087 8.36522 172.257 8.53519C172.427 8.70516 172.512 8.92369 172.512 9.19078V10.6112C173.143 9.83423 173.957 9.19078 174.952 8.68088C175.972 8.17097 177.186 7.91602 178.595 7.91602C180.027 7.91602 181.29 8.24381 182.382 8.89941C183.475 9.53072 184.325 10.4655 184.932 11.7039C185.539 12.918 185.843 14.3991 185.843 16.1474V26.3091C185.843 26.5762 185.758 26.7947 185.588 26.9647C185.418 27.1346 185.199 27.2196 184.932 27.2196H181.071C180.804 27.2196 180.586 27.1346 180.416 26.9647C180.246 26.7947 180.161 26.5762 180.161 26.3091V16.3659C180.161 15.079 179.845 14.0835 179.214 13.3793C178.607 12.6509 177.708 12.2866 176.519 12.2866C175.377 12.2866 174.467 12.6509 173.787 13.3793C173.131 14.0835 172.804 15.079 172.804 16.3659V26.3091C172.804 26.5762 172.719 26.7947 172.549 26.9647C172.379 27.1346 172.16 27.2196 171.893 27.2196H168.032Z" fill="white"/>
<path d="M191.845 27.2196C191.578 27.2196 191.36 27.1346 191.19 26.9647C191.02 26.7947 190.935 26.5762 190.935 26.3091V2.27062C190.935 2.00353 191.02 1.785 191.19 1.61503C191.36 1.44506 191.578 1.36007 191.845 1.36007H195.415C195.657 1.36007 195.864 1.44506 196.034 1.61503C196.228 1.785 196.325 2.00353 196.325 2.27062V14.5812L201.898 8.89941C202.092 8.72944 202.262 8.58375 202.408 8.46234C202.578 8.34094 202.833 8.28023 203.173 8.28023H207.325C207.543 8.28023 207.725 8.36522 207.871 8.53519C208.041 8.68087 208.126 8.86298 208.126 9.08152C208.126 9.17864 208.102 9.28791 208.053 9.40931C208.005 9.53072 207.92 9.62784 207.798 9.70069L200.769 16.7665L208.709 25.8356C208.903 26.0298 209 26.2241 209 26.4183C209 26.6369 208.927 26.8311 208.782 27.0011C208.636 27.1468 208.442 27.2196 208.199 27.2196H203.974C203.61 27.2196 203.342 27.1589 203.173 27.0375C203.027 26.9161 202.857 26.7704 202.663 26.6005L196.325 19.4618V26.3091C196.325 26.5762 196.228 26.7947 196.034 26.9647C195.864 27.1346 195.657 27.2196 195.415 27.2196H191.845Z" fill="white"/>
</svg>
